<svg xmlns="http://www.w3.org/2000/svg" width="1806" height="835" viewBox="0 0 1806 835" fill="none"><path d="M52.6345 12.1463H12.1469V52.6339M52.6345 12.1463V52.6339M52.6345 12.1463H93.1221M52.6345 52.6339H12.1469M52.6345 52.6339V93.1215M52.6345 52.6339H93.1221M12.1469 52.6339V93.1215M52.6345 93.1215H12.1469M52.6345 93.1215V133.609M52.6345 93.1215H93.1221M12.1469 93.1215V133.609M52.6345 133.609H12.1469M52.6345 133.609V174.097M52.6345 133.609H93.1221M12.1469 133.609V174.097M52.6345 174.097H12.1469M52.6345 174.097V214.584M52.6345 174.097H93.1221M12.1469 174.097V214.584M52.6345 214.584H12.1469M52.6345 214.584V255.072M52.6345 214.584H93.1221M12.1469 214.584V255.072M52.6345 255.072H12.1469M52.6345 255.072V295.56M52.6345 255.072H93.1221M12.1469 255.072V295.56M52.6345 295.56H12.1469M52.6345 295.56V336.047M52.6345 295.56H93.1221M12.1469 295.56V336.047M52.6345 336.047H12.1469M52.6345 336.047V376.535M52.6345 336.047H93.1221M12.1469 336.047V376.535M52.6345 376.535H12.1469M52.6345 376.535V417.022M52.6345 376.535H93.1221M12.1469 376.535V417.022M52.6345 417.022H12.1469M52.6345 417.022V457.51M52.6345 417.022H93.1221M12.1469 417.022V457.51M52.6345 457.51H12.1469M52.6345 457.51V497.998M52.6345 457.51H93.1221M12.1469 457.51V497.998M52.6345 497.998H12.1469M52.6345 497.998V538.485M52.6345 497.998H93.1221M12.1469 497.998V538.485M52.6345 538.485H12.1469M52.6345 538.485V578.973M52.6345 538.485H93.1221M12.1469 538.485V578.973M52.6345 578.973H12.1469M52.6345 578.973V619.46M52.6345 578.973H93.1221M12.1469 578.973V619.46M52.6345 619.46H12.1469M52.6345 619.46V659.948M52.6345 619.46H93.1221M12.1469 619.46V659.948M52.6345 659.948H12.1469M52.6345 659.948V700.436M52.6345 659.948H93.1221M12.1469 659.948V700.436M52.6345 700.436H12.1469M52.6345 700.436V740.923M52.6345 700.436H93.1221M12.1469 700.436V740.923M52.6345 740.923H12.1469M52.6345 740.923V781.411M52.6345 740.923H93.1221M12.1469 740.923V781.411M52.6345 781.411H12.1469M52.6345 781.411V821.898M52.6345 781.411H93.1221M12.1469 781.411V821.898H52.6345M52.6345 821.898H93.1221M93.1221 12.1463V52.6339M93.1221 12.1463H133.61M93.1221 52.6339V93.1215M93.1221 52.6339H133.61M93.1221 93.1215V133.609M93.1221 93.1215H133.61M93.1221 133.609V174.097M93.1221 133.609H133.61M93.1221 174.097V214.584M93.1221 174.097H133.61M93.1221 214.584V255.072M93.1221 214.584H133.61M93.1221 255.072V295.56M93.1221 255.072H133.61M93.1221 295.56V336.047M93.1221 295.56H133.61M93.1221 336.047V376.535M93.1221 336.047H133.61M93.1221 376.535V417.022M93.1221 376.535H133.61M93.1221 417.022V457.51M93.1221 417.022H133.61M93.1221 457.51V497.998M93.1221 457.51H133.61M93.1221 497.998V538.485M93.1221 497.998H133.61M93.1221 538.485V578.973M93.1221 538.485H133.61M93.1221 578.973V619.46M93.1221 578.973H133.61M93.1221 619.46V659.948M93.1221 619.46H133.61M93.1221 659.948V700.436M93.1221 659.948H133.61M93.1221 700.436V740.923M93.1221 700.436H133.61M93.1221 740.923V781.411M93.1221 740.923H133.61M93.1221 781.411V821.898M93.1221 781.411H133.61M93.1221 821.898H133.61M133.61 12.1463V52.6339M133.61 12.1463H174.097M133.61 52.6339V93.1215M133.61 52.6339H174.097M133.61 93.1215V133.609M133.61 93.1215H174.097M133.61 133.609V174.097M133.61 133.609H174.097M133.61 174.097V214.584M133.61 174.097H174.097M133.61 214.584V255.072M133.61 214.584H174.097M133.61 255.072V295.56M133.61 255.072H174.097M133.61 295.56V336.047M133.61 295.56H174.097M133.61 336.047V376.535M133.61 336.047H174.097M133.61 376.535V417.022M133.61 376.535H174.097M133.61 417.022V457.51M133.61 417.022H174.097M133.61 457.51V497.998M133.61 457.51H174.097M133.61 497.998V538.485M133.61 497.998H174.097M133.61 538.485V578.973M133.61 538.485H174.097M133.61 578.973V619.46M133.61 578.973H174.097M133.61 619.46V659.948M133.61 619.46H174.097M133.61 659.948V700.436M133.61 659.948H174.097M133.61 700.436V740.923M133.61 700.436H174.097M133.61 740.923V781.411M133.61 740.923H174.097M133.61 781.411V821.898M133.61 781.411H174.097M133.61 821.898H174.097M174.097 12.1463V52.6339M174.097 12.1463H214.585M174.097 12.1463L174.098 0M174.097 12.1463L174.098 24.2926M174.097 12.1463L161.952 12.1463M174.097 12.1463L186.244 12.1463M174.097 52.6339V93.1215M174.097 52.6339H214.585M174.097 93.1215V133.609M174.097 93.1215H214.585M174.097 133.609V174.097M174.097 133.609H214.585M174.097 174.097V214.584M174.097 174.097H214.585M174.097 174.097L174.098 161.95M174.097 174.097L174.098 186.243M174.097 174.097L161.952 174.097M174.097 174.097L186.244 174.097M174.097 214.584V255.072M174.097 214.584H214.585M174.097 255.072V295.56M174.097 255.072H214.585M174.097 295.56V336.047M174.097 295.56H214.585M174.097 336.047V376.535M174.097 336.047H214.585M174.097 336.047L174.098 323.901M174.097 336.047L174.098 348.193M174.097 336.047L161.952 336.047M174.097 336.047L186.244 336.047M174.097 376.535V417.022M174.097 376.535H214.585M174.097 417.022V457.51M174.097 417.022H214.585M174.097 457.51V497.998M174.097 457.51H214.585M174.097 497.998V538.485M174.097 497.998H214.585M174.097 497.998L174.098 485.851M174.097 497.998L174.098 510.144M174.097 497.998L161.952 497.997M174.097 497.998L186.244 497.997M174.097 538.485V578.973M174.097 538.485H214.585M174.097 578.973V619.46M174.097 578.973H214.585M174.097 619.46V659.948M174.097 619.46H214.585M174.097 659.948V700.436M174.097 659.948H214.585M174.097 659.948L174.098 647.802M174.097 659.948L174.098 672.094M174.097 659.948L161.952 659.948M174.097 659.948L186.244 659.948M174.097 700.436V740.923M174.097 700.436H214.585M174.097 740.923V781.411M174.097 740.923H214.585M174.097 781.411V821.898M174.097 781.411H214.585M174.097 821.898H214.585M214.585 12.1463V52.6339M214.585 12.1463H255.072M214.585 52.6339V93.1215M214.585 52.6339H255.072M214.585 93.1215V133.609M214.585 93.1215H255.072M214.585 133.609V174.097M214.585 133.609H255.072M214.585 174.097V214.584M214.585 174.097H255.072M214.585 214.584V255.072M214.585 214.584H255.072M214.585 255.072V295.56M214.585 255.072H255.072M214.585 295.56V336.047M214.585 295.56H255.072M214.585 336.047V376.535M214.585 336.047H255.072M214.585 376.535V417.022M214.585 376.535H255.072M214.585 417.022V457.51M214.585 417.022H255.072M214.585 457.51V497.998M214.585 457.51H255.072M214.585 497.998V538.485M214.585 497.998H255.072M214.585 538.485V578.973M214.585 538.485H255.072M214.585 578.973V619.46M214.585 578.973H255.072M214.585 619.46V659.948M214.585 619.46H255.072M214.585 659.948V700.436M214.585 659.948H255.072M214.585 700.436V740.923M214.585 700.436H255.072M214.585 740.923V781.411M214.585 740.923H255.072M214.585 781.411V821.898M214.585 781.411H255.072M214.585 821.898H255.072M255.072 12.1463V52.6339M255.072 12.1463H295.56M255.072 52.6339V93.1215M255.072 52.6339H295.56M255.072 93.1215V133.609M255.072 93.1215H295.56M255.072 133.609V174.097M255.072 133.609H295.56M255.072 174.097V214.584M255.072 174.097H295.56M255.072 214.584V255.072M255.072 214.584H295.56M255.072 255.072V295.56M255.072 255.072H295.56M255.072 295.56V336.047M255.072 295.56H295.56M255.072 336.047V376.535M255.072 336.047H295.56M255.072 376.535V417.022M255.072 376.535H295.56M255.072 417.022V457.51M255.072 417.022H295.56M255.072 457.51V497.998M255.072 457.51H295.56M255.072 497.998V538.485M255.072 497.998H295.56M255.072 538.485V578.973M255.072 538.485H295.56M255.072 578.973V619.46M255.072 578.973H295.56M255.072 619.46V659.948M255.072 619.46H295.56M255.072 659.948V700.436M255.072 659.948H295.56M255.072 700.436V740.923M255.072 700.436H295.56M255.072 740.923V781.411M255.072 740.923H295.56M255.072 781.411V821.898M255.072 781.411H295.56M255.072 821.898H295.56M295.56 12.1463V52.6339M295.56 12.1463H336.048M295.56 52.6339V93.1215M295.56 52.6339H336.048M295.56 93.1215V133.609M295.56 93.1215H336.048M295.56 133.609V174.097M295.56 133.609H336.048M295.56 174.097V214.584M295.56 174.097H336.048M295.56 214.584V255.072M295.56 214.584H336.048M295.56 255.072V295.56M295.56 255.072H336.048M295.56 295.56V336.047M295.56 295.56H336.048M295.56 336.047V376.535M295.56 336.047H336.048M295.56 376.535V417.022M295.56 376.535H336.048M295.56 417.022V457.51M295.56 417.022H336.048M295.56 457.51V497.998M295.56 457.51H336.048M295.56 497.998V538.485M295.56 497.998H336.048M295.56 538.485V578.973M295.56 538.485H336.048M295.56 578.973V619.46M295.56 578.973H336.048M295.56 619.46V659.948M295.56 619.46H336.048M295.56 659.948V700.436M295.56 659.948H336.048M295.56 700.436V740.923M295.56 700.436H336.048M295.56 740.923V781.411M295.56 740.923H336.048M295.56 781.411V821.898M295.56 781.411H336.048M295.56 821.898H336.048M336.048 12.1463V52.6339M336.048 12.1463H376.535M336.048 52.6339V93.1215M336.048 52.6339H376.535M336.048 93.1215V133.609M336.048 93.1215H376.535M336.048 133.609V174.097M336.048 133.609H376.535M336.048 174.097V214.584M336.048 174.097H376.535M336.048 214.584V255.072M336.048 214.584H376.535M336.048 255.072V295.56M336.048 255.072H376.535M336.048 295.56V336.047M336.048 295.56H376.535M336.048 336.047V376.535M336.048 336.047H376.535M336.048 376.535V417.022M336.048 376.535H376.535M336.048 417.022V457.51M336.048 417.022H376.535M336.048 457.51V497.998M336.048 457.51H376.535M336.048 497.998V538.485M336.048 497.998H376.535M336.048 538.485V578.973M336.048 538.485H376.535M336.048 578.973V619.46M336.048 578.973H376.535M336.048 619.46V659.948M336.048 619.46H376.535M336.048 659.948V700.436M336.048 659.948H376.535M336.048 700.436V740.923M336.048 700.436H376.535M336.048 740.923V781.411M336.048 740.923H376.535M336.048 781.411V821.898M336.048 781.411H376.535M336.048 821.898H376.535M376.535 12.1463V52.6339M376.535 12.1463H417.023M376.535 52.6339V93.1215M376.535 52.6339H417.023M376.535 93.1215V133.609M376.535 93.1215H417.023M376.535 133.609V174.097M376.535 133.609H417.023M376.535 174.097V214.584M376.535 174.097H417.023M376.535 214.584V255.072M376.535 214.584H417.023M376.535 255.072V295.56M376.535 255.072H417.023M376.535 295.56V336.047M376.535 295.56H417.023M376.535 336.047V376.535M376.535 336.047H417.023M376.535 376.535V417.022M376.535 376.535H417.023M376.535 417.022V457.51M376.535 417.022H417.023M376.535 457.51V497.998M376.535 457.51H417.023M376.535 497.998V538.485M376.535 497.998H417.023M376.535 538.485V578.973M376.535 538.485H417.023M376.535 578.973V619.46M376.535 578.973H417.023M376.535 619.46V659.948M376.535 619.46H417.023M376.535 659.948V700.436M376.535 659.948H417.023M376.535 700.436V740.923M376.535 700.436H417.023M376.535 740.923V781.411M376.535 740.923H417.023M376.535 781.411V821.898M376.535 781.411H417.023M376.535 821.898H417.023M417.023 12.1463V52.6339M417.023 12.1463H457.51M417.023 52.6339V93.1215M417.023 52.6339H457.51M417.023 93.1215V133.609M417.023 93.1215H457.51M417.023 133.609V174.097M417.023 133.609H457.51M417.023 174.097V214.584M417.023 174.097H457.51M417.023 214.584V255.072M417.023 214.584H457.51M417.023 255.072V295.56M417.023 255.072H457.51M417.023 295.56V336.047M417.023 295.56H457.51M417.023 336.047V376.535M417.023 336.047H457.51M417.023 376.535V417.022M417.023 376.535H457.51M417.023 417.022V457.51M417.023 417.022H457.51M417.023 457.51V497.998M417.023 457.51H457.51M417.023 497.998V538.485M417.023 497.998H457.51M417.023 538.485V578.973M417.023 538.485H457.51M417.023 578.973V619.46M417.023 578.973H457.51M417.023 619.46V659.948M417.023 619.46H457.51M417.023 659.948V700.436M417.023 659.948H457.51M417.023 700.436V740.923M417.023 700.436H457.51M417.023 740.923V781.411M417.023 740.923H457.51M417.023 781.411V821.898M417.023 781.411H457.51M417.023 821.898H457.51M457.51 12.1463V52.6339M457.51 12.1463H497.998M457.51 52.6339V93.1215M457.51 52.6339H497.998M457.51 93.1215V133.609M457.51 93.1215H497.998M457.51 133.609V174.097M457.51 133.609H497.998M457.51 174.097V214.584M457.51 174.097H497.998M457.51 214.584V255.072M457.51 214.584H497.998M457.51 255.072V295.56M457.51 255.072H497.998M457.51 295.56V336.047M457.51 295.56H497.998M457.51 336.047V376.535M457.51 336.047H497.998M457.51 376.535V417.022M457.51 376.535H497.998M457.51 417.022V457.51M457.51 417.022H497.998M457.51 457.51V497.998M457.51 457.51H497.998M457.51 497.998V538.485M457.51 497.998H497.998M457.51 538.485V578.973M457.51 538.485H497.998M457.51 578.973V619.46M457.51 578.973H497.998M457.51 619.46V659.948M457.51 619.46H497.998M457.51 659.948V700.436M457.51 659.948H497.998M457.51 700.436V740.923M457.51 700.436H497.998M457.51 740.923V781.411M457.51 740.923H497.998M457.51 781.411V821.898M457.51 781.411H497.998M457.51 821.898H497.998M497.998 12.1463V52.6339M497.998 12.1463H538.486M497.998 12.1463L497.999 0M497.998 12.1463L497.999 24.2926M497.998 12.1463L485.852 12.1463M497.998 12.1463L510.145 12.1463M497.998 52.6339V93.1215M497.998 52.6339H538.486M497.998 93.1215V133.609M497.998 93.1215H538.486M497.998 133.609V174.097M497.998 133.609H538.486M497.998 174.097V214.584M497.998 174.097H538.486M497.998 174.097L497.999 161.95M497.998 174.097L497.999 186.243M497.998 174.097L485.852 174.097M497.998 174.097L510.145 174.097M497.998 214.584V255.072M497.998 214.584H538.486M497.998 255.072V295.56M497.998 255.072H538.486M497.998 295.56V336.047M497.998 295.56H538.486M497.998 336.047V376.535M497.998 336.047H538.486M497.998 336.047L497.999 323.901M497.998 336.047L497.999 348.193M497.998 336.047L485.852 336.047M497.998 336.047L510.145 336.047M497.998 376.535V417.022M497.998 376.535H538.486M497.998 417.022V457.51M497.998 417.022H538.486M497.998 457.51V497.998M497.998 457.51H538.486M497.998 497.998V538.485M497.998 497.998H538.486M497.998 497.998L497.999 485.851M497.998 497.998L497.999 510.144M497.998 497.998L485.852 497.997M497.998 497.998L510.145 497.997M497.998 538.485V578.973M497.998 538.485H538.486M497.998 578.973V619.46M497.998 578.973H538.486M497.998 619.46V659.948M497.998 619.46H538.486M497.998 659.948V700.436M497.998 659.948H538.486M497.998 659.948L497.999 647.802M497.998 659.948L497.999 672.094M497.998 659.948L485.852 659.948M497.998 659.948L510.145 659.948M497.998 700.436V740.923M497.998 700.436H538.486M497.998 740.923V781.411M497.998 740.923H538.486M497.998 781.411V821.898M497.998 781.411H538.486M497.998 821.898H538.486M538.486 12.1463V52.6339M538.486 12.1463H578.973M538.486 52.6339V93.1215M538.486 52.6339H578.973M538.486 93.1215V133.609M538.486 93.1215H578.973M538.486 133.609V174.097M538.486 133.609H578.973M538.486 174.097V214.584M538.486 174.097H578.973M538.486 214.584V255.072M538.486 214.584H578.973M538.486 255.072V295.56M538.486 255.072H578.973M538.486 295.56V336.047M538.486 295.56H578.973M538.486 336.047V376.535M538.486 336.047H578.973M538.486 376.535V417.022M538.486 376.535H578.973M538.486 417.022V457.51M538.486 417.022H578.973M538.486 457.51V497.998M538.486 457.51H578.973M538.486 497.998V538.485M538.486 497.998H578.973M538.486 538.485V578.973M538.486 538.485H578.973M538.486 578.973V619.46M538.486 578.973H578.973M538.486 619.46V659.948M538.486 619.46H578.973M538.486 659.948V700.436M538.486 659.948H578.973M538.486 700.436V740.923M538.486 700.436H578.973M538.486 740.923V781.411M538.486 740.923H578.973M538.486 781.411V821.898M538.486 781.411H578.973M538.486 821.898H578.973M578.973 12.1463V52.6339M578.973 12.1463H619.461M578.973 52.6339V93.1215M578.973 52.6339H619.461M578.973 93.1215V133.609M578.973 93.1215H619.461M578.973 133.609V174.097M578.973 133.609H619.461M578.973 174.097V214.584M578.973 174.097H619.461M578.973 214.584V255.072M578.973 214.584H619.461M578.973 255.072V295.56M578.973 255.072H619.461M578.973 295.56V336.047M578.973 295.56H619.461M578.973 336.047V376.535M578.973 336.047H619.461M578.973 376.535V417.022M578.973 376.535H619.461M578.973 417.022V457.51M578.973 417.022H619.461M578.973 457.51V497.998M578.973 457.51H619.461M578.973 497.998V538.485M578.973 497.998H619.461M578.973 538.485V578.973M578.973 538.485H619.461M578.973 578.973V619.46M578.973 578.973H619.461M578.973 619.46V659.948M578.973 619.46H619.461M578.973 659.948V700.436M578.973 659.948H619.461M578.973 700.436V740.923M578.973 700.436H619.461M578.973 740.923V781.411M578.973 740.923H619.461M578.973 781.411V821.898M578.973 781.411H619.461M578.973 821.898H619.461M619.461 12.1463V52.6339M619.461 12.1463H659.948M619.461 52.6339V93.1215M619.461 52.6339H659.948M619.461 93.1215V133.609M619.461 93.1215H659.948M619.461 133.609V174.097M619.461 133.609H659.948M619.461 174.097V214.584M619.461 174.097H659.948M619.461 214.584V255.072M619.461 214.584H659.948M619.461 255.072V295.56M619.461 255.072H659.948M619.461 295.56V336.047M619.461 295.56H659.948M619.461 336.047V376.535M619.461 336.047H659.948M619.461 376.535V417.022M619.461 376.535H659.948M619.461 417.022V457.51M619.461 417.022H659.948M619.461 457.51V497.998M619.461 457.51H659.948M619.461 497.998V538.485M619.461 497.998H659.948M619.461 538.485V578.973M619.461 538.485H659.948M619.461 578.973V619.46M619.461 578.973H659.948M619.461 619.46V659.948M619.461 619.46H659.948M619.461 659.948V700.436M619.461 659.948H659.948M619.461 700.436V740.923M619.461 700.436H659.948M619.461 740.923V781.411M619.461 740.923H659.948M619.461 781.411V821.898M619.461 781.411H659.948M619.461 821.898H659.948M659.948 12.1463V52.6339M659.948 12.1463H700.436M659.948 52.6339V93.1215M659.948 52.6339H700.436M659.948 93.1215V133.609M659.948 93.1215H700.436M659.948 133.609V174.097M659.948 133.609H700.436M659.948 174.097V214.584M659.948 174.097H700.436M659.948 214.584V255.072M659.948 214.584H700.436M659.948 255.072V295.56M659.948 255.072H700.436M659.948 295.56V336.047M659.948 295.56H700.436M659.948 336.047V376.535M659.948 336.047H700.436M659.948 376.535V417.022M659.948 376.535H700.436M659.948 417.022V457.51M659.948 417.022H700.436M659.948 457.51V497.998M659.948 457.51H700.436M659.948 497.998V538.485M659.948 497.998H700.436M659.948 538.485V578.973M659.948 538.485H700.436M659.948 578.973V619.46M659.948 578.973H700.436M659.948 619.46V659.948M659.948 619.46H700.436M659.948 659.948V700.436M659.948 659.948H700.436M659.948 700.436V740.923M659.948 700.436H700.436M659.948 740.923V781.411M659.948 740.923H700.436M659.948 781.411V821.898M659.948 781.411H700.436M659.948 821.898H700.436M700.436 12.1463V52.6339M700.436 12.1463H740.924M700.436 52.6339V93.1215M700.436 52.6339H740.924M700.436 93.1215V133.609M700.436 93.1215H740.924M700.436 133.609V174.097M700.436 133.609H740.924M700.436 174.097V214.584M700.436 174.097H740.924M700.436 214.584V255.072M700.436 214.584H740.924M700.436 255.072V295.56M700.436 255.072H740.924M700.436 295.56V336.047M700.436 295.56H740.924M700.436 336.047V376.535M700.436 336.047H740.924M700.436 376.535V417.022M700.436 376.535H740.924M700.436 417.022V457.51M700.436 417.022H740.924M700.436 457.51V497.998M700.436 457.51H740.924M700.436 497.998V538.485M700.436 497.998H740.924M700.436 538.485V578.973M700.436 538.485H740.924M700.436 578.973V619.46M700.436 578.973H740.924M700.436 619.46V659.948M700.436 619.46H740.924M700.436 659.948V700.436M700.436 659.948H740.924M700.436 700.436V740.923M700.436 700.436H740.924M700.436 740.923V781.411M700.436 740.923H740.924M700.436 781.411V821.898M700.436 781.411H740.924M700.436 821.898H740.924M740.924 12.1463V52.6339M740.924 12.1463H781.411M740.924 52.6339V93.1215M740.924 52.6339H781.411M740.924 93.1215V133.609M740.924 93.1215H781.411M740.924 133.609V174.097M740.924 133.609H781.411M740.924 174.097V214.584M740.924 174.097H781.411M740.924 214.584V255.072M740.924 214.584H781.411M740.924 255.072V295.56M740.924 255.072H781.411M740.924 295.56V336.047M740.924 295.56H781.411M740.924 336.047V376.535M740.924 336.047H781.411M740.924 376.535V417.022M740.924 376.535H781.411M740.924 417.022V457.51M740.924 417.022H781.411M740.924 457.51V497.998M740.924 457.51H781.411M740.924 497.998V538.485M740.924 497.998H781.411M740.924 538.485V578.973M740.924 538.485H781.411M740.924 578.973V619.46M740.924 578.973H781.411M740.924 619.46V659.948M740.924 619.46H781.411M740.924 659.948V700.436M740.924 659.948H781.411M740.924 700.436V740.923M740.924 700.436H781.411M740.924 740.923V781.411M740.924 740.923H781.411M740.924 781.411V821.898M740.924 781.411H781.411M740.924 821.898H781.411M781.411 12.1463V52.6339M781.411 12.1463H821.899M781.411 52.6339V93.1215M781.411 52.6339H821.899M781.411 93.1215V133.609M781.411 93.1215H821.899M781.411 133.609V174.097M781.411 133.609H821.899M781.411 174.097V214.584M781.411 174.097H821.899M781.411 214.584V255.072M781.411 214.584H821.899M781.411 255.072V295.56M781.411 255.072H821.899M781.411 295.56V336.047M781.411 295.56H821.899M781.411 336.047V376.535M781.411 336.047H821.899M781.411 376.535V417.022M781.411 376.535H821.899M781.411 417.022V457.51M781.411 417.022H821.899M781.411 457.51V497.998M781.411 457.51H821.899M781.411 497.998V538.485M781.411 497.998H821.899M781.411 538.485V578.973M781.411 538.485H821.899M781.411 578.973V619.46M781.411 578.973H821.899M781.411 619.46V659.948M781.411 619.46H821.899M781.411 659.948V700.436M781.411 659.948H821.899M781.411 700.436V740.923M781.411 700.436H821.899M781.411 740.923V781.411M781.411 740.923H821.899M781.411 781.411V821.898M781.411 781.411H821.899M781.411 821.898H821.899M821.899 12.1463V52.6339M821.899 12.1463H862.386M821.899 52.6339V93.1215M821.899 52.6339H862.386M821.899 93.1215V133.609M821.899 93.1215H862.386M821.899 133.609V174.097M821.899 133.609H862.386M821.899 174.097V214.584M821.899 174.097H862.386M821.899 214.584V255.072M821.899 214.584H862.386M821.899 255.072V295.56M821.899 255.072H862.386M821.899 295.56V336.047M821.899 295.56H862.386M821.899 336.047V376.535M821.899 336.047H862.386M821.899 376.535V417.022M821.899 376.535H862.386M821.899 417.022V457.51M821.899 417.022H862.386M821.899 457.51V497.998M821.899 457.51H862.386M821.899 497.998V538.485M821.899 497.998H862.386M821.899 538.485V578.973M821.899 538.485H862.386M821.899 578.973V619.46M821.899 578.973H862.386M821.899 619.46V659.948M821.899 619.46H862.386M821.899 659.948V700.436M821.899 659.948H862.386M821.899 700.436V740.923M821.899 700.436H862.386M821.899 740.923V781.411M821.899 740.923H862.386M821.899 781.411V821.898M821.899 781.411H862.386M821.899 821.898H862.386M862.386 12.1463V52.6339M862.386 12.1463H902.874M862.386 52.6339V93.1215M862.386 52.6339H902.874M862.386 93.1215V133.609M862.386 93.1215H902.874M862.386 133.609V174.097M862.386 133.609H902.874M862.386 174.097V214.584M862.386 174.097H902.874M862.386 214.584V255.072M862.386 214.584H902.874M862.386 255.072V295.56M862.386 255.072H902.874M862.386 295.56V336.047M862.386 295.56H902.874M862.386 336.047V376.535M862.386 336.047H902.874M862.386 376.535V417.022M862.386 376.535H902.874M862.386 417.022V457.51M862.386 417.022H902.874M862.386 457.51V497.998M862.386 457.51H902.874M862.386 497.998V538.485M862.386 497.998H902.874M862.386 538.485V578.973M862.386 538.485H902.874M862.386 578.973V619.46M862.386 578.973H902.874M862.386 619.46V659.948M862.386 619.46H902.874M862.386 659.948V700.436M862.386 659.948H902.874M862.386 700.436V740.923M862.386 700.436H902.874M862.386 740.923V781.411M862.386 740.923H902.874M862.386 781.411V821.898M862.386 781.411H902.874M862.386 821.898H902.874M902.874 12.1463V52.6339M902.874 12.1463H943.362M902.874 52.6339V93.1215M902.874 52.6339H943.362M902.874 93.1215V133.609M902.874 93.1215H943.362M902.874 133.609V174.097M902.874 133.609H943.362M902.874 174.097V214.584M902.874 174.097H943.362M902.874 214.584V255.072M902.874 214.584H943.362M902.874 255.072V295.56M902.874 255.072H943.362M902.874 295.56V336.047M902.874 295.56H943.362M902.874 336.047V376.535M902.874 336.047H943.362M902.874 376.535V417.022M902.874 376.535H943.362M902.874 417.022V457.51M902.874 417.022H943.362M902.874 457.51V497.998M902.874 457.51H943.362M902.874 497.998V538.485M902.874 497.998H943.362M902.874 538.485V578.973M902.874 538.485H943.362M902.874 578.973V619.46M902.874 578.973H943.362M902.874 619.46V659.948M902.874 619.46H943.362M902.874 659.948V700.436M902.874 659.948H943.362M902.874 700.436V740.923M902.874 700.436H943.362M902.874 740.923V781.411M902.874 740.923H943.362M902.874 781.411V821.898M902.874 781.411H943.362M902.874 821.898H943.362M943.362 12.1463V52.6339M943.362 12.1463H983.849M943.362 52.6339V93.1215M943.362 52.6339H983.849M943.362 93.1215V133.609M943.362 93.1215H983.849M943.362 133.609V174.097M943.362 133.609H983.849M943.362 174.097V214.584M943.362 174.097H983.849M943.362 214.584V255.072M943.362 214.584H983.849M943.362 255.072V295.56M943.362 255.072H983.849M943.362 295.56V336.047M943.362 295.56H983.849M943.362 336.047V376.535M943.362 336.047H983.849M943.362 376.535V417.022M943.362 376.535H983.849M943.362 417.022V457.51M943.362 417.022H983.849M943.362 457.51V497.998M943.362 457.51H983.849M943.362 497.998V538.485M943.362 497.998H983.849M943.362 538.485V578.973M943.362 538.485H983.849M943.362 578.973V619.46M943.362 578.973H983.849M943.362 619.46V659.948M943.362 619.46H983.849M943.362 659.948V700.436M943.362 659.948H983.849M943.362 700.436V740.923M943.362 700.436H983.849M943.362 740.923V781.411M943.362 740.923H983.849M943.362 781.411V821.898M943.362 781.411H983.849M943.362 821.898H983.849M983.849 12.1463V52.6339M983.849 12.1463H1024.34M983.849 52.6339V93.1215M983.849 52.6339H1024.34M983.849 93.1215V133.609M983.849 93.1215H1024.34M983.849 133.609V174.097M983.849 133.609H1024.34M983.849 174.097V214.584M983.849 174.097H1024.34M983.849 214.584V255.072M983.849 214.584H1024.34M983.849 255.072V295.56M983.849 255.072H1024.34M983.849 295.56V336.047M983.849 295.56H1024.34M983.849 336.047V376.535M983.849 336.047H1024.34M983.849 376.535V417.022M983.849 376.535H1024.34M983.849 417.022V457.51M983.849 417.022H1024.34M983.849 457.51V497.998M983.849 457.51H1024.34M983.849 497.998V538.485M983.849 497.998H1024.34M983.849 538.485V578.973M983.849 538.485H1024.34M983.849 578.973V619.46M983.849 578.973H1024.34M983.849 619.46V659.948M983.849 619.46H1024.34M983.849 659.948V700.436M983.849 659.948H1024.34M983.849 700.436V740.923M983.849 700.436H1024.34M983.849 740.923V781.411M983.849 740.923H1024.34M983.849 781.411V821.898M983.849 781.411H1024.34M983.849 821.898H1024.34M1024.34 12.1463V52.6339M1024.34 12.1463H1064.82M1024.34 52.6339V93.1215M1024.34 52.6339H1064.82M1024.34 93.1215V133.609M1024.34 93.1215H1064.82M1024.34 133.609V174.097M1024.34 133.609H1064.82M1024.34 174.097V214.584M1024.34 174.097H1064.82M1024.34 214.584V255.072M1024.34 214.584H1064.82M1024.34 255.072V295.56M1024.34 255.072H1064.82M1024.34 295.56V336.047M1024.34 295.56H1064.82M1024.34 336.047V376.535M1024.34 336.047H1064.82M1024.34 376.535V417.022M1024.34 376.535H1064.82M1024.34 417.022V457.51M1024.34 417.022H1064.82M1024.34 457.51V497.998M1024.34 457.51H1064.82M1024.34 497.998V538.485M1024.34 497.998H1064.82M1024.34 538.485V578.973M1024.34 538.485H1064.82M1024.34 578.973V619.46M1024.34 578.973H1064.82M1024.34 619.46V659.948M1024.34 619.46H1064.82M1024.34 659.948V700.436M1024.34 659.948H1064.82M1024.34 700.436V740.923M1024.34 700.436H1064.82M1024.34 740.923V781.411M1024.34 740.923H1064.82M1024.34 781.411V821.898M1024.34 781.411H1064.82M1024.34 821.898H1064.82M1064.82 12.1463V52.6339M1064.82 12.1463H1105.31M1064.82 52.6339V93.1215M1064.82 52.6339H1105.31M1064.82 93.1215V133.609M1064.82 93.1215H1105.31M1064.82 133.609V174.097M1064.82 133.609H1105.31M1064.82 174.097V214.584M1064.82 174.097H1105.31M1064.82 214.584V255.072M1064.82 214.584H1105.31M1064.82 255.072V295.56M1064.82 255.072H1105.31M1064.82 295.56V336.047M1064.82 295.56H1105.31M1064.82 336.047V376.535M1064.82 336.047H1105.31M1064.82 376.535V417.022M1064.82 376.535H1105.31M1064.82 417.022V457.51M1064.82 417.022H1105.31M1064.82 457.51V497.998M1064.82 457.51H1105.31M1064.82 497.998V538.485M1064.82 497.998H1105.31M1064.82 538.485V578.973M1064.82 538.485H1105.31M1064.82 578.973V619.46M1064.82 578.973H1105.31M1064.82 619.46V659.948M1064.82 619.46H1105.31M1064.82 659.948V700.436M1064.82 659.948H1105.31M1064.82 700.436V740.923M1064.82 700.436H1105.31M1064.82 740.923V781.411M1064.82 740.923H1105.31M1064.82 781.411V821.898M1064.82 781.411H1105.31M1064.82 821.898H1105.31M1105.31 12.1463V52.6339M1105.31 12.1463H1145.8M1105.31 52.6339V93.1215M1105.31 52.6339H1145.8M1105.31 93.1215V133.609M1105.31 93.1215H1145.8M1105.31 133.609V174.097M1105.31 133.609H1145.8M1105.31 174.097V214.584M1105.31 174.097H1145.8M1105.31 214.584V255.072M1105.31 214.584H1145.8M1105.31 255.072V295.56M1105.31 255.072H1145.8M1105.31 295.56V336.047M1105.31 295.56H1145.8M1105.31 336.047V376.535M1105.31 336.047H1145.8M1105.31 376.535V417.022M1105.31 376.535H1145.8M1105.31 417.022V457.51M1105.31 417.022H1145.8M1105.31 457.51V497.998M1105.31 457.51H1145.8M1105.31 497.998V538.485M1105.31 497.998H1145.8M1105.31 538.485V578.973M1105.31 538.485H1145.8M1105.31 578.973V619.46M1105.31 578.973H1145.8M1105.31 619.46V659.948M1105.31 619.46H1145.8M1105.31 659.948V700.436M1105.31 659.948H1145.8M1105.31 700.436V740.923M1105.31 700.436H1145.8M1105.31 740.923V781.411M1105.31 740.923H1145.8M1105.31 781.411V821.898M1105.31 781.411H1145.8M1105.31 821.898H1145.8M1145.8 12.1463V52.6339M1145.8 12.1463H1186.29M1145.8 52.6339V93.1215M1145.8 52.6339H1186.29M1145.8 93.1215V133.609M1145.8 93.1215H1186.29M1145.8 133.609V174.097M1145.8 133.609H1186.29M1145.8 174.097V214.584M1145.8 174.097H1186.29M1145.8 214.584V255.072M1145.8 214.584H1186.29M1145.8 255.072V295.56M1145.8 255.072H1186.29M1145.8 295.56V336.047M1145.8 295.56H1186.29M1145.8 336.047V376.535M1145.8 336.047H1186.29M1145.8 376.535V417.022M1145.8 376.535H1186.29M1145.8 417.022V457.51M1145.8 417.022H1186.29M1145.8 457.51V497.998M1145.8 457.51H1186.29M1145.8 497.998V538.485M1145.8 497.998H1186.29M1145.8 538.485V578.973M1145.8 538.485H1186.29M1145.8 578.973V619.46M1145.8 578.973H1186.29M1145.8 619.46V659.948M1145.8 619.46H1186.29M1145.8 659.948V700.436M1145.8 659.948H1186.29M1145.8 700.436V740.923M1145.8 700.436H1186.29M1145.8 740.923V781.411M1145.8 740.923H1186.29M1145.8 781.411V821.898M1145.8 781.411H1186.29M1145.8 821.898H1186.29M1186.29 12.1463V52.6339M1186.29 12.1463H1226.77M1186.29 52.6339V93.1215M1186.29 52.6339H1226.77M1186.29 93.1215V133.609M1186.29 93.1215H1226.77M1186.29 133.609V174.097M1186.29 133.609H1226.77M1186.29 174.097V214.584M1186.29 174.097H1226.77M1186.29 214.584V255.072M1186.29 214.584H1226.77M1186.29 255.072V295.56M1186.29 255.072H1226.77M1186.29 295.56V336.047M1186.29 295.56H1226.77M1186.29 336.047V376.535M1186.29 336.047H1226.77M1186.29 376.535V417.022M1186.29 376.535H1226.77M1186.29 417.022V457.51M1186.29 417.022H1226.77M1186.29 457.51V497.998M1186.29 457.51H1226.77M1186.29 497.998V538.485M1186.29 497.998H1226.77M1186.29 538.485V578.973M1186.29 538.485H1226.77M1186.29 578.973V619.46M1186.29 578.973H1226.77M1186.29 619.46V659.948M1186.29 619.46H1226.77M1186.29 659.948V700.436M1186.29 659.948H1226.77M1186.29 700.436V740.923M1186.29 700.436H1226.77M1186.29 740.923V781.411M1186.29 740.923H1226.77M1186.29 781.411V821.898M1186.29 781.411H1226.77M1186.29 821.898H1226.77M1226.77 12.1463V52.6339M1226.77 12.1463H1267.26M1226.77 52.6339V93.1215M1226.77 52.6339H1267.26M1226.77 93.1215V133.609M1226.77 93.1215H1267.26M1226.77 133.609V174.097M1226.77 133.609H1267.26M1226.77 174.097V214.584M1226.77 174.097H1267.26M1226.77 214.584V255.072M1226.77 214.584H1267.26M1226.77 255.072V295.56M1226.77 255.072H1267.26M1226.77 295.56V336.047M1226.77 295.56H1267.26M1226.77 336.047V376.535M1226.77 336.047H1267.26M1226.77 376.535V417.022M1226.77 376.535H1267.26M1226.77 417.022V457.51M1226.77 417.022H1267.26M1226.77 457.51V497.998M1226.77 457.51H1267.26M1226.77 497.998V538.485M1226.77 497.998H1267.26M1226.77 538.485V578.973M1226.77 538.485H1267.26M1226.77 578.973V619.46M1226.77 578.973H1267.26M1226.77 619.46V659.948M1226.77 619.46H1267.26M1226.77 659.948V700.436M1226.77 659.948H1267.26M1226.77 700.436V740.923M1226.77 700.436H1267.26M1226.77 740.923V781.411M1226.77 740.923H1267.26M1226.77 781.411V821.898M1226.77 781.411H1267.26M1226.77 821.898H1267.26M1267.26 12.1463V52.6339M1267.26 12.1463H1307.75M1267.26 52.6339V93.1215M1267.26 52.6339H1307.75M1267.26 93.1215V133.609M1267.26 93.1215H1307.75M1267.26 133.609V174.097M1267.26 133.609H1307.75M1267.26 174.097V214.584M1267.26 174.097H1307.75M1267.26 214.584V255.072M1267.26 214.584H1307.75M1267.26 255.072V295.56M1267.26 255.072H1307.75M1267.26 295.56V336.047M1267.26 295.56H1307.75M1267.26 336.047V376.535M1267.26 336.047H1307.75M1267.26 376.535V417.022M1267.26 376.535H1307.75M1267.26 417.022V457.51M1267.26 417.022H1307.75M1267.26 457.51V497.998M1267.26 457.51H1307.75M1267.26 497.998V538.485M1267.26 497.998H1307.75M1267.26 538.485V578.973M1267.26 538.485H1307.75M1267.26 578.973V619.46M1267.26 578.973H1307.75M1267.26 619.46V659.948M1267.26 619.46H1307.75M1267.26 659.948V700.436M1267.26 659.948H1307.75M1267.26 700.436V740.923M1267.26 700.436H1307.75M1267.26 740.923V781.411M1267.26 740.923H1307.75M1267.26 781.411V821.898M1267.26 781.411H1307.75M1267.26 821.898H1307.75M1307.75 12.1463V52.6339M1307.75 12.1463H1348.24M1307.75 12.1463L1307.75 0M1307.75 12.1463L1307.75 24.2926M1307.75 12.1463L1295.6 12.1463M1307.75 12.1463L1319.9 12.1463M1307.75 52.6339V93.1215M1307.75 52.6339H1348.24M1307.75 93.1215V133.609M1307.75 93.1215H1348.24M1307.75 133.609V174.097M1307.75 133.609H1348.24M1307.75 174.097V214.584M1307.75 174.097H1348.24M1307.75 174.097L1307.75 161.95M1307.75 174.097L1307.75 186.243M1307.75 174.097L1295.6 174.097M1307.75 174.097L1319.9 174.097M1307.75 214.584V255.072M1307.75 214.584H1348.24M1307.75 255.072V295.56M1307.75 255.072H1348.24M1307.75 295.56V336.047M1307.75 295.56H1348.24M1307.75 336.047V376.535M1307.75 336.047H1348.24M1307.75 336.047L1307.75 323.901M1307.75 336.047L1307.75 348.193M1307.75 336.047L1295.6 336.047M1307.75 336.047L1319.9 336.047M1307.75 376.535V417.022M1307.75 376.535H1348.24M1307.75 417.022V457.51M1307.75 417.022H1348.24M1307.75 457.51V497.998M1307.75 457.51H1348.24M1307.75 497.998V538.485M1307.75 497.998H1348.24M1307.75 497.998L1307.75 485.851M1307.75 497.998L1307.75 510.144M1307.75 497.998L1295.6 497.997M1307.75 497.998L1319.9 497.997M1307.75 538.485V578.973M1307.75 538.485H1348.24M1307.75 578.973V619.46M1307.75 578.973H1348.24M1307.75 619.46V659.948M1307.75 619.46H1348.24M1307.75 659.948V700.436M1307.75 659.948H1348.24M1307.75 659.948L1307.75 647.802M1307.75 659.948L1307.75 672.094M1307.75 659.948L1295.6 659.948M1307.75 659.948L1319.9 659.948M1307.75 700.436V740.923M1307.75 700.436H1348.24M1307.75 740.923V781.411M1307.75 740.923H1348.24M1307.75 781.411V821.898M1307.75 781.411H1348.24M1307.75 821.898H1348.24M1348.24 12.1463V52.6339M1348.24 12.1463H1388.73M1348.24 52.6339V93.1215M1348.24 52.6339H1388.73M1348.24 93.1215V133.609M1348.24 93.1215H1388.73M1348.24 133.609V174.097M1348.24 133.609H1388.73M1348.24 174.097V214.584M1348.24 174.097H1388.73M1348.24 214.584V255.072M1348.24 214.584H1388.73M1348.24 255.072V295.56M1348.24 255.072H1388.73M1348.24 295.56V336.047M1348.24 295.56H1388.73M1348.24 336.047V376.535M1348.24 336.047H1388.73M1348.24 376.535V417.022M1348.24 376.535H1388.73M1348.24 417.022V457.51M1348.24 417.022H1388.73M1348.24 457.51V497.998M1348.24 457.51H1388.73M1348.24 497.998V538.485M1348.24 497.998H1388.73M1348.24 538.485V578.973M1348.24 538.485H1388.73M1348.24 578.973V619.46M1348.24 578.973H1388.73M1348.24 619.46V659.948M1348.24 619.46H1388.73M1348.24 659.948V700.436M1348.24 659.948H1388.73M1348.24 700.436V740.923M1348.24 700.436H1388.73M1348.24 740.923V781.411M1348.24 740.923H1388.73M1348.24 781.411V821.898M1348.24 781.411H1388.73M1348.24 821.898H1388.73M1388.73 12.1463V52.6339M1388.73 12.1463H1429.21M1388.73 52.6339V93.1215M1388.73 52.6339H1429.21M1388.73 93.1215V133.609M1388.73 93.1215H1429.21M1388.73 133.609V174.097M1388.73 133.609H1429.21M1388.73 174.097V214.584M1388.73 174.097H1429.21M1388.73 214.584V255.072M1388.73 214.584H1429.21M1388.73 255.072V295.56M1388.73 255.072H1429.21M1388.73 295.56V336.047M1388.73 295.56H1429.21M1388.73 336.047V376.535M1388.73 336.047H1429.21M1388.73 376.535V417.022M1388.73 376.535H1429.21M1388.73 417.022V457.51M1388.73 417.022H1429.21M1388.73 457.51V497.998M1388.73 457.51H1429.21M1388.73 497.998V538.485M1388.73 497.998H1429.21M1388.73 538.485V578.973M1388.73 538.485H1429.21M1388.73 578.973V619.46M1388.73 578.973H1429.21M1388.73 619.46V659.948M1388.73 619.46H1429.21M1388.73 659.948V700.436M1388.73 659.948H1429.21M1388.73 700.436V740.923M1388.73 700.436H1429.21M1388.73 740.923V781.411M1388.73 740.923H1429.21M1388.73 781.411V821.898M1388.73 781.411H1429.21M1388.73 821.898H1429.21M1429.21 12.1463V52.6339M1429.21 12.1463H1469.7M1429.21 52.6339V93.1215M1429.21 52.6339H1469.7M1429.21 93.1215V133.609M1429.21 93.1215H1469.7M1429.21 133.609V174.097M1429.21 133.609H1469.7M1429.21 174.097V214.584M1429.21 174.097H1469.7M1429.21 214.584V255.072M1429.21 214.584H1469.7M1429.21 255.072V295.56M1429.21 255.072H1469.7M1429.21 295.56V336.047M1429.21 295.56H1469.7M1429.21 336.047V376.535M1429.21 336.047H1469.7M1429.21 376.535V417.022M1429.21 376.535H1469.7M1429.21 417.022V457.51M1429.21 417.022H1469.7M1429.21 457.51V497.998M1429.21 457.51H1469.7M1429.21 497.998V538.485M1429.21 497.998H1469.7M1429.21 538.485V578.973M1429.21 538.485H1469.7M1429.21 578.973V619.46M1429.21 578.973H1469.7M1429.21 619.46V659.948M1429.21 619.46H1469.7M1429.21 659.948V700.436M1429.21 659.948H1469.7M1429.21 700.436V740.923M1429.21 700.436H1469.7M1429.21 740.923V781.411M1429.21 740.923H1469.7M1429.21 781.411V821.898M1429.21 781.411H1469.7M1429.21 821.898H1469.7M1469.7 12.1463V52.6339M1469.7 12.1463H1510.19M1469.7 52.6339V93.1215M1469.7 52.6339H1510.19M1469.7 93.1215V133.609M1469.7 93.1215H1510.19M1469.7 133.609V174.097M1469.7 133.609H1510.19M1469.7 174.097V214.584M1469.7 174.097H1510.19M1469.7 214.584V255.072M1469.7 214.584H1510.19M1469.7 255.072V295.56M1469.7 255.072H1510.19M1469.7 295.56V336.047M1469.7 295.56H1510.19M1469.7 336.047V376.535M1469.7 336.047H1510.19M1469.7 376.535V417.022M1469.7 376.535H1510.19M1469.7 417.022V457.51M1469.7 417.022H1510.19M1469.7 457.51V497.998M1469.7 457.51H1510.19M1469.7 497.998V538.485M1469.7 497.998H1510.19M1469.7 538.485V578.973M1469.7 538.485H1510.19M1469.7 578.973V619.46M1469.7 578.973H1510.19M1469.7 619.46V659.948M1469.7 619.46H1510.19M1469.7 659.948V700.436M1469.7 659.948H1510.19M1469.7 700.436V740.923M1469.7 700.436H1510.19M1469.7 740.923V781.411M1469.7 740.923H1510.19M1469.7 781.411V821.898M1469.7 781.411H1510.19M1469.7 821.898H1510.19M1510.19 12.1463V52.6339M1510.19 12.1463H1550.68M1510.19 52.6339V93.1215M1510.19 52.6339H1550.68M1510.19 93.1215V133.609M1510.19 93.1215H1550.68M1510.19 133.609V174.097M1510.19 133.609H1550.68M1510.19 174.097V214.584M1510.19 174.097H1550.68M1510.19 214.584V255.072M1510.19 214.584H1550.68M1510.19 255.072V295.56M1510.19 255.072H1550.68M1510.19 295.56V336.047M1510.19 295.56H1550.68M1510.19 336.047V376.535M1510.19 336.047H1550.68M1510.19 376.535V417.022M1510.19 376.535H1550.68M1510.19 417.022V457.51M1510.19 417.022H1550.68M1510.19 457.51V497.998M1510.19 457.51H1550.68M1510.19 497.998V538.485M1510.19 497.998H1550.68M1510.19 538.485V578.973M1510.19 538.485H1550.68M1510.19 578.973V619.46M1510.19 578.973H1550.68M1510.19 619.46V659.948M1510.19 619.46H1550.68M1510.19 659.948V700.436M1510.19 659.948H1550.68M1510.19 700.436V740.923M1510.19 700.436H1550.68M1510.19 740.923V781.411M1510.19 740.923H1550.68M1510.19 781.411V821.898M1510.19 781.411H1550.68M1510.19 821.898H1550.68M1550.68 12.1463V52.6339M1550.68 12.1463H1591.16M1550.68 52.6339V93.1215M1550.68 52.6339H1591.16M1550.68 93.1215V133.609M1550.68 93.1215H1591.16M1550.68 133.609V174.097M1550.68 133.609H1591.16M1550.68 174.097V214.584M1550.68 174.097H1591.16M1550.68 214.584V255.072M1550.68 214.584H1591.16M1550.68 255.072V295.56M1550.68 255.072H1591.16M1550.68 295.56V336.047M1550.68 295.56H1591.16M1550.68 336.047V376.535M1550.68 336.047H1591.16M1550.68 376.535V417.022M1550.68 376.535H1591.16M1550.68 417.022V457.51M1550.68 417.022H1591.16M1550.68 457.51V497.998M1550.68 457.51H1591.16M1550.68 497.998V538.485M1550.68 497.998H1591.16M1550.68 538.485V578.973M1550.68 538.485H1591.16M1550.68 578.973V619.46M1550.68 578.973H1591.16M1550.68 619.46V659.948M1550.68 619.46H1591.16M1550.68 659.948V700.436M1550.68 659.948H1591.16M1550.68 700.436V740.923M1550.68 700.436H1591.16M1550.68 740.923V781.411M1550.68 740.923H1591.16M1550.68 781.411V821.898M1550.68 781.411H1591.16M1550.68 821.898H1591.16M1591.16 12.1463V52.6339M1591.16 12.1463H1631.65M1591.16 52.6339V93.1215M1591.16 52.6339H1631.65M1591.16 93.1215V133.609M1591.16 93.1215H1631.65M1591.16 133.609V174.097M1591.16 133.609H1631.65M1591.16 174.097V214.584M1591.16 174.097H1631.65M1591.16 214.584V255.072M1591.16 214.584H1631.65M1591.16 255.072V295.56M1591.16 255.072H1631.65M1591.16 295.56V336.047M1591.16 295.56H1631.65M1591.16 336.047V376.535M1591.16 336.047H1631.65M1591.16 376.535V417.022M1591.16 376.535H1631.65M1591.16 417.022V457.51M1591.16 417.022H1631.65M1591.16 457.51V497.998M1591.16 457.51H1631.65M1591.16 497.998V538.485M1591.16 497.998H1631.65M1591.16 538.485V578.973M1591.16 538.485H1631.65M1591.16 578.973V619.46M1591.16 578.973H1631.65M1591.16 619.46V659.948M1591.16 619.46H1631.65M1591.16 659.948V700.436M1591.16 659.948H1631.65M1591.16 700.436V740.923M1591.16 700.436H1631.65M1591.16 740.923V781.411M1591.16 740.923H1631.65M1591.16 781.411V821.898M1591.16 781.411H1631.65M1591.16 821.898H1631.65M1631.65 12.1463V52.6339M1631.65 12.1463H1672.14M1631.65 12.1463L1631.65 0M1631.65 12.1463L1631.65 24.2926M1631.65 12.1463L1619.5 12.1463M1631.65 12.1463L1643.8 12.1463M1631.65 52.6339V93.1215M1631.65 52.6339H1672.14M1631.65 93.1215V133.609M1631.65 93.1215H1672.14M1631.65 133.609V174.097M1631.65 133.609H1672.14M1631.65 174.097V214.584M1631.65 174.097H1672.14M1631.65 174.097L1631.65 161.95M1631.65 174.097L1631.65 186.243M1631.65 174.097L1619.5 174.097M1631.65 174.097L1643.8 174.097M1631.65 214.584V255.072M1631.65 214.584H1672.14M1631.65 255.072V295.56M1631.65 255.072H1672.14M1631.65 295.56V336.047M1631.65 295.56H1672.14M1631.65 336.047V376.535M1631.65 336.047H1672.14M1631.65 336.047L1631.65 323.901M1631.65 336.047L1631.65 348.193M1631.65 336.047L1619.5 336.047M1631.65 336.047L1643.8 336.047M1631.65 376.535V417.022M1631.65 376.535H1672.14M1631.65 417.022V457.51M1631.65 417.022H1672.14M1631.65 457.51V497.998M1631.65 457.51H1672.14M1631.65 497.998V538.485M1631.65 497.998H1672.14M1631.65 497.998L1631.65 485.851M1631.65 497.998L1631.65 510.144M1631.65 497.998L1619.5 497.997M1631.65 497.998L1643.8 497.997M1631.65 538.485V578.973M1631.65 538.485H1672.14M1631.65 578.973V619.46M1631.65 578.973H1672.14M1631.65 619.46V659.948M1631.65 619.46H1672.14M1631.65 659.948V700.436M1631.65 659.948H1672.14M1631.65 659.948L1631.65 647.802M1631.65 659.948L1631.65 672.094M1631.65 659.948L1619.5 659.948M1631.65 659.948L1643.8 659.948M1631.65 700.436V740.923M1631.65 700.436H1672.14M1631.65 740.923V781.411M1631.65 740.923H1672.14M1631.65 781.411V821.898M1631.65 781.411H1672.14M1631.65 821.898H1672.14M1631.65 821.898L1631.65 809.752M1631.65 821.898L1631.65 834.045M1631.65 821.898L1619.5 821.899M1631.65 821.898L1643.8 821.899M1672.14 12.1463V52.6339M1672.14 12.1463H1712.63M1672.14 52.6339V93.1215M1672.14 52.6339H1712.63M1672.14 93.1215V133.609M1672.14 93.1215H1712.63M1672.14 133.609V174.097M1672.14 133.609H1712.63M1672.14 174.097V214.584M1672.14 174.097H1712.63M1672.14 214.584V255.072M1672.14 214.584H1712.63M1672.14 255.072V295.56M1672.14 255.072H1712.63M1672.14 295.56V336.047M1672.14 295.56H1712.63M1672.14 336.047V376.535M1672.14 336.047H1712.63M1672.14 376.535V417.022M1672.14 376.535H1712.63M1672.14 417.022V457.51M1672.14 417.022H1712.63M1672.14 457.51V497.998M1672.14 457.51H1712.63M1672.14 497.998V538.485M1672.14 497.998H1712.63M1672.14 538.485V578.973M1672.14 538.485H1712.63M1672.14 578.973V619.46M1672.14 578.973H1712.63M1672.14 619.46V659.948M1672.14 619.46H1712.63M1672.14 659.948V700.436M1672.14 659.948H1712.63M1672.14 700.436V740.923M1672.14 700.436H1712.63M1672.14 740.923V781.411M1672.14 740.923H1712.63M1672.14 781.411V821.898M1672.14 781.411H1712.63M1672.14 821.898H1712.63M1712.63 12.1463V52.6339M1712.63 12.1463H1753.11M1712.63 52.6339V93.1215M1712.63 52.6339H1753.11M1712.63 93.1215V133.609M1712.63 93.1215H1753.11M1712.63 133.609V174.097M1712.63 133.609H1753.11M1712.63 174.097V214.584M1712.63 174.097H1753.11M1712.63 214.584V255.072M1712.63 214.584H1753.11M1712.63 255.072V295.56M1712.63 255.072H1753.11M1712.63 295.56V336.047M1712.63 295.56H1753.11M1712.63 336.047V376.535M1712.63 336.047H1753.11M1712.63 376.535V417.022M1712.63 376.535H1753.11M1712.63 417.022V457.51M1712.63 417.022H1753.11M1712.63 457.51V497.998M1712.63 457.51H1753.11M1712.63 497.998V538.485M1712.63 497.998H1753.11M1712.63 538.485V578.973M1712.63 538.485H1753.11M1712.63 578.973V619.46M1712.63 578.973H1753.11M1712.63 619.46V659.948M1712.63 619.46H1753.11M1712.63 659.948V700.436M1712.63 659.948H1753.11M1712.63 700.436V740.923M1712.63 700.436H1753.11M1712.63 740.923V781.411M1712.63 740.923H1753.11M1712.63 781.411V821.898M1712.63 781.411H1753.11M1712.63 821.898H1753.11M1753.11 12.1463V52.6339M1753.11 12.1463H1793.6M1753.11 52.6339V93.1215M1753.11 52.6339H1793.6M1753.11 93.1215V133.609M1753.11 93.1215H1793.6M1753.11 133.609V174.097M1753.11 133.609H1793.6M1753.11 174.097V214.584M1753.11 174.097H1793.6M1753.11 214.584V255.072M1753.11 214.584H1793.6M1753.11 255.072V295.56M1753.11 255.072H1793.6M1753.11 295.56V336.047M1753.11 295.56H1793.6M1753.11 336.047V376.535M1753.11 336.047H1793.6M1753.11 376.535V417.022M1753.11 376.535H1793.6M1753.11 417.022V457.51M1753.11 417.022H1793.6M1753.11 457.51V497.998M1753.11 457.51H1793.6M1753.11 497.998V538.485M1753.11 497.998H1793.6M1753.11 538.485V578.973M1753.11 538.485H1793.6M1753.11 578.973V619.46M1753.11 578.973H1793.6M1753.11 619.46V659.948M1753.11 619.46H1793.6M1753.11 659.948V700.436M1753.11 659.948H1793.6M1753.11 700.436V740.923M1753.11 700.436H1793.6M1753.11 740.923V781.411M1753.11 740.923H1793.6M1753.11 781.411V821.898M1753.11 781.411H1793.6M1753.11 821.898H1793.6V781.411M1793.6 12.1463V52.6339M1793.6 12.1463L1793.6 0M1793.6 12.1463L1793.6 24.2926M1793.6 12.1463L1781.46 12.1463M1793.6 12.1463L1805.75 12.1463M1793.6 52.6339V93.1215M1793.6 93.1215V133.609M1793.6 133.609V174.097M1793.6 174.097V214.584M1793.6 174.097L1793.6 161.95M1793.6 174.097L1793.6 186.243M1793.6 174.097L1781.46 174.097M1793.6 174.097L1805.75 174.097M1793.6 214.584V255.072M1793.6 255.072V295.56M1793.6 295.56V336.047M1793.6 336.047V376.535M1793.6 336.047L1793.6 323.901M1793.6 336.047L1793.6 348.193M1793.6 336.047L1781.46 336.047M1793.6 336.047L1805.75 336.047M1793.6 376.535V417.022M1793.6 417.022V457.51M1793.6 457.51V497.998M1793.6 497.998V538.485M1793.6 497.998L1793.6 485.851M1793.6 497.998L1793.6 510.144M1793.6 497.998L1781.46 497.997M1793.6 497.998L1805.75 497.997M1793.6 538.485V578.973M1793.6 578.973V619.46M1793.6 619.46V659.948M1793.6 659.948V700.436M1793.6 659.948L1793.6 647.802M1793.6 659.948L1793.6 672.094M1793.6 659.948L1781.46 659.948M1793.6 659.948L1805.75 659.948M1793.6 700.436V740.923M1793.6 740.923V781.411M174.098 809.752V821.899M174.098 821.899V834.045M174.098 821.899H161.952M174.098 821.899H186.244M497.999 809.752V821.899M497.999 821.899V834.045M497.999 821.899H485.852M497.999 821.899H510.145M821.897 161.95V174.097M821.897 174.097V186.243M821.897 174.097H809.751M821.897 174.097H834.043M821.897 485.851V497.997M821.897 497.997V510.144M821.897 497.997H809.751M821.897 497.997H834.043M821.897 809.752V821.899M821.897 821.899V834.045M821.897 821.899H809.751M821.897 821.899H834.043M1145.8 161.95V174.097M1145.8 174.097V186.243M1145.8 174.097H1133.65M1145.8 174.097H1157.94M1145.8 485.851V497.997M1145.8 497.997V510.144M1145.8 497.997H1133.65M1145.8 497.997H1157.94M1145.8 809.752V821.899M1145.8 821.899V834.045M1145.8 821.899H1133.65M1145.8 821.899H1157.94M1469.7 161.95V174.097M1469.7 174.097V186.243M1469.7 174.097H1457.55M1469.7 174.097H1481.85M1469.7 485.851V497.997M1469.7 497.997V510.144M1469.7 497.997H1457.55M1469.7 497.997H1481.85M1469.7 809.752V821.899M1469.7 821.899V834.045M1469.7 821.899H1457.55M1469.7 821.899H1481.85M1793.6 809.752V821.899M1793.6 821.899V834.045M1793.6 821.899H1781.46M1793.6 821.899H1805.75M821.897 0V12.1463M821.897 12.1463V24.2926M821.897 12.1463H809.751M821.897 12.1463H834.043M821.897 323.901V336.047M821.897 336.047V348.193M821.897 336.047H809.751M821.897 336.047H834.043M821.897 647.802V659.948M821.897 659.948V672.094M821.897 659.948H809.751M821.897 659.948H834.043M1145.8 0V12.1463M1145.8 12.1463V24.2926M1145.8 12.1463H1133.65M1145.8 12.1463H1157.94M1145.8 323.901V336.047M1145.8 336.047V348.193M1145.8 336.047H1133.65M1145.8 336.047H1157.94M1145.8 647.802V659.948M1145.8 659.948V672.094M1145.8 659.948H1133.65M1145.8 659.948H1157.94M1469.7 0V12.1463M1469.7 12.1463V24.2926M1469.7 12.1463H1457.55M1469.7 12.1463H1481.85M1469.7 323.901V336.047M1469.7 336.047V348.193M1469.7 336.047H1457.55M1469.7 336.047H1481.85M1469.7 647.802V659.948M1469.7 659.948V672.094M1469.7 659.948H1457.55M1469.7 659.948H1481.85M12.1463 161.95V174.097M12.1463 174.097V186.243M12.1463 174.097H0M12.1463 174.097H24.2926M12.1463 485.851V497.997M12.1463 497.997V510.144M12.1463 497.997H0M12.1463 497.997H24.2926M12.1463 809.752V821.899M12.1463 821.899V834.045M12.1463 821.899H0M12.1463 821.899H24.2926M336.047 161.95V174.097M336.047 174.097V186.243M336.047 174.097H323.901M336.047 174.097H348.193M336.047 485.851V497.997M336.047 497.997V510.144M336.047 497.997H323.901M336.047 497.997H348.193M336.047 809.752V821.899M336.047 821.899V834.045M336.047 821.899H323.901M336.047 821.899H348.193M659.948 161.95V174.097M659.948 174.097V186.243M659.948 174.097H647.802M659.948 174.097H672.094M659.948 485.851V497.997M659.948 497.997V510.144M659.948 497.997H647.802M659.948 497.997H672.094M659.948 809.752V821.899M659.948 821.899V834.045M659.948 821.899H647.802M659.948 821.899H672.094M983.846 161.95V174.097M983.846 174.097V186.243M983.846 174.097H971.7M983.846 174.097H995.993M983.846 485.851V497.997M983.846 497.997V510.144M983.846 497.997H971.7M983.846 497.997H995.993M983.846 809.752V821.899M983.846 821.899V834.045M983.846 821.899H971.7M983.846 821.899H995.993M1307.75 809.752V821.899M1307.75 821.899V834.045M1307.75 821.899H1295.6M1307.75 821.899H1319.9M12.1463 0V12.1463M12.1463 12.1463V24.2926M12.1463 12.1463H0M12.1463 12.1463H24.2926M12.1463 323.901V336.047M12.1463 336.047V348.193M12.1463 336.047H0M12.1463 336.047H24.2926M12.1463 647.802V659.948M12.1463 659.948V672.094M12.1463 659.948H0M12.1463 659.948H24.2926M336.047 0V12.1463M336.047 12.1463V24.2926M336.047 12.1463H323.901M336.047 12.1463H348.193M336.047 323.901V336.047M336.047 336.047V348.193M336.047 336.047H323.901M336.047 336.047H348.193M336.047 647.802V659.948M336.047 659.948V672.094M336.047 659.948H323.901M336.047 659.948H348.193M659.948 0V12.1463M659.948 12.1463V24.2926M659.948 12.1463H647.802M659.948 12.1463H672.094M659.948 323.901V336.047M659.948 336.047V348.193M659.948 336.047H647.802M659.948 336.047H672.094M659.948 647.802V659.948M659.948 659.948V672.094M659.948 659.948H647.802M659.948 659.948H672.094M983.846 0V12.1463M983.846 12.1463V24.2926M983.846 12.1463H971.7M983.846 12.1463H995.993M983.846 323.901V336.047M983.846 336.047V348.193M983.846 336.047H971.7M983.846 336.047H995.993M983.846 647.802V659.948M983.846 659.948V672.094M983.846 659.948H971.7M983.846 659.948H995.993" stroke="#E2E2E2"></path></svg>