<svg xmlns="http://www.w3.org/2000/svg" width="267" height="579" viewBox="0 0 267 579" fill="none"><g clip-path="url(#clip0_2027_205)"><path d="M-22.5743 528.602C111.329 528.602 219.879 420.052 219.879 286.149C219.879 152.246 111.329 43.696 -22.5743 43.696C-156.477 43.696 -265.027 152.246 -265.027 286.149C-265.027 420.052 -156.477 528.602 -22.5743 528.602Z" fill="#C8B034" fill-opacity="0.03"></path><path d="M-26 578.29C135.819 578.29 267 448.835 267 289.145C267 129.455 135.819 0 -26 0C-187.819 0 -319 129.455 -319 289.145C-319 448.835 -187.819 578.29 -26 578.29Z" fill="#FFEB34" fill-opacity="0.03"></path><path d="M-22.5727 470.69C79.347 470.69 161.969 388.068 161.969 286.148C161.969 184.228 79.347 101.606 -22.5727 101.606C-124.492 101.606 -207.115 184.228 -207.115 286.148C-207.115 388.068 -124.492 470.69 -22.5727 470.69Z" fill="#C8C234" fill-opacity="0.03"></path><path d="M-22.5744 405.055C43.0978 405.055 96.3356 351.817 96.3356 286.145C96.3356 220.473 43.0978 167.235 -22.5744 167.235C-88.2466 167.235 -141.484 220.473 -141.484 286.145C-141.484 351.817 -88.2466 405.055 -22.5744 405.055Z" fill="#C8B934" fill-opacity="0.08"></path></g><defs><clipPath id="clip0_2027_205"><rect width="267" height="579" fill="white"></rect></clipPath></defs></svg>