<svg xmlns="http://www.w3.org/2000/svg" width="1120" height="95" viewBox="0 0 1120 95" fill="none"><g clip-path="url(#clip0_2008_256)"><g style="mix-blend-mode:soft-light" opacity="0.4"><path d="M-75.75 560H-106V529.75M-75.75 560V529.75M-75.75 560H-45.5M-75.75 529.75H-106M-75.75 529.75V499.5M-75.75 529.75H-45.5M-106 529.75V499.5M-75.75 499.5H-106M-75.75 499.5V469.25M-75.75 499.5H-45.5M-106 499.5V469.25M-75.75 469.25H-106M-75.75 469.25V439M-75.75 469.25H-45.5M-106 469.25V439M-75.75 439H-106M-75.75 439V408.75M-75.75 439H-45.5M-106 439V408.75M-75.75 408.75H-106M-75.75 408.75V378.5M-75.75 408.75H-45.5M-106 408.75V378.5M-75.75 378.5H-106M-75.75 378.5V348.25M-75.75 378.5H-45.5M-106 378.5V348.25M-75.75 348.25H-106M-75.75 348.25V318M-75.75 348.25H-45.5M-106 348.25V318M-75.75 318H-106M-75.75 318V287.75M-75.75 318H-45.5M-106 318V287.75M-75.75 287.75H-106M-75.75 287.75V257.5M-75.75 287.75H-45.5M-106 287.75V257.5M-75.75 257.5H-106M-75.75 257.5V227.25M-75.75 257.5H-45.5M-106 257.5V227.25M-75.75 227.25H-106M-75.75 227.25V197M-75.75 227.25H-45.5M-106 227.25V197M-75.75 197H-106M-75.75 197V166.75M-75.75 197H-45.5M-106 197V166.75M-75.75 166.75H-106M-75.75 166.75V136.5M-75.75 166.75H-45.5M-106 166.75V136.5M-75.75 136.5H-106M-75.75 136.5V106.25M-75.75 136.5H-45.5M-106 136.5V106.25M-75.75 106.25H-106M-75.75 106.25V75.9999M-75.75 106.25H-45.5M-106 106.25V75.9999M-75.75 75.9999H-106M-75.75 75.9999V45.7499M-75.75 75.9999H-45.5M-106 75.9999V45.7499M-75.75 45.7499H-106M-75.75 45.7499V15.4999M-75.75 45.7499H-45.5M-106 45.7499V15.4999M-75.75 15.4999H-106M-75.75 15.4999V-14.7501M-75.75 15.4999H-45.5M-106 15.4999V-14.7501M-75.75 -14.7501H-106M-75.75 -14.7501V-45.0001M-75.75 -14.7501H-45.5M-106 -14.7501V-45.0001H-75.75M-75.75 -45.0001H-45.5M-45.5 560V529.75M-45.5 560H-15.25M-45.5 529.75V499.5M-45.5 529.75H-15.25M-45.5 499.5V469.25M-45.5 499.5H-15.25M-45.5 469.25V439M-45.5 469.25H-15.25M-45.5 439V408.75M-45.5 439H-15.25M-45.5 408.75V378.5M-45.5 408.75H-15.25M-45.5 378.5V348.25M-45.5 378.5H-15.25M-45.5 348.25V318M-45.5 348.25H-15.25M-45.5 318V287.75M-45.5 318H-15.25M-45.5 287.75V257.5M-45.5 287.75H-15.25M-45.5 257.5V227.25M-45.5 257.5H-15.25M-45.5 227.25V197M-45.5 227.25H-15.25M-45.5 197V166.75M-45.5 197H-15.25M-45.5 166.75V136.5M-45.5 166.75H-15.25M-45.5 136.5V106.25M-45.5 136.5H-15.25M-45.5 106.25V75.9999M-45.5 106.25H-15.25M-45.5 75.9999V45.7499M-45.5 75.9999H-15.25M-45.5 45.7499V15.4999M-45.5 45.7499H-15.25M-45.5 15.4999V-14.7501M-45.5 15.4999H-15.25M-45.5 -14.7501V-45.0001M-45.5 -14.7501H-15.25M-45.5 -45.0001H-15.25M-15.25 560V529.75M-15.25 560H15M-15.25 529.75V499.5M-15.25 529.75H15M-15.25 499.5V469.25M-15.25 499.5H15M-15.25 469.25V439M-15.25 469.25H15M-15.25 439V408.75M-15.25 439H15M-15.25 408.75V378.5M-15.25 408.75H15M-15.25 378.5V348.25M-15.25 378.5H15M-15.25 348.25V318M-15.25 348.25H15M-15.25 318V287.75M-15.25 318H15M-15.25 287.75V257.5M-15.25 287.75H15M-15.25 257.5V227.25M-15.25 257.5H15M-15.25 227.25V197M-15.25 227.25H15M-15.25 197V166.75M-15.25 197H15M-15.25 166.75V136.5M-15.25 166.75H15M-15.25 136.5V106.25M-15.25 136.5H15M-15.25 106.25V75.9999M-15.25 106.25H15M-15.25 75.9999V45.7499M-15.25 75.9999H15M-15.25 45.7499V15.4999M-15.25 45.7499H15M-15.25 15.4999V-14.7501M-15.25 15.4999H15M-15.25 -14.7501V-45.0001M-15.25 -14.7501H15M-15.25 -45.0001H15M15 560V529.75M15 560H45.25M15 529.75V499.5M15 529.75H45.25M15 499.5V469.25M15 499.5H45.25M15 469.25V439M15 469.25H45.25M15 439V408.75M15 439H45.25M15 408.75V378.5M15 408.75H45.25M15 378.5V348.25M15 378.5H45.25M15 348.25V318M15 348.25H45.25M15 318V287.75M15 318H45.25M15 287.75V257.5M15 287.75H45.25M15 257.5V227.25M15 257.5H45.25M15 227.25V197M15 227.25H45.25M15 197V166.75M15 197H45.25M15 166.75V136.5M15 166.75H45.25M15 136.5V106.25M15 136.5H45.25M15 106.25V75.9999M15 106.25H45.25M15 75.9999V45.7499M15 75.9999H45.25M15 45.7499V15.4999M15 45.7499H45.25M15 15.4999V-14.7501M15 15.4999H45.25M15 -14.7501V-45.0001M15 -14.7501H45.25M15 -45.0001H45.25M45.25 560V529.75M45.25 560H75.5001M45.25 529.75V499.5M45.25 529.75H75.5001M45.25 499.5V469.25M45.25 499.5H75.5001M45.25 469.25V439M45.25 469.25H75.5001M45.25 439V408.75M45.25 439H75.5001M45.25 408.75V378.5M45.25 408.75H75.5001M45.25 378.5V348.25M45.25 378.5H75.5001M45.25 348.25V318M45.25 348.25H75.5001M45.25 318V287.75M45.25 318H75.5001M45.25 287.75V257.5M45.25 287.75H75.5001M45.25 257.5V227.25M45.25 257.5H75.5001M45.25 227.25V197M45.25 227.25H75.5001M45.25 197V166.75M45.25 197H75.5001M45.25 166.75V136.5M45.25 166.75H75.5001M45.25 136.5V106.25M45.25 136.5H75.5001M45.25 106.25V75.9999M45.25 106.25H75.5001M45.25 75.9999V45.7499M45.25 75.9999H75.5001M45.25 45.7499V15.4999M45.25 45.7499H75.5001M45.25 15.4999V-14.7501M45.25 15.4999H75.5001M45.25 -14.7501V-45.0001M45.25 -14.7501H75.5001M45.25 -45.0001H75.5001M75.5001 560V529.75M75.5001 560H105.75M75.5001 529.75V499.5M75.5001 529.75H105.75M75.5001 499.5V469.25M75.5001 499.5H105.75M75.5001 469.25V439M75.5001 469.25H105.75M75.5001 439V408.75M75.5001 439H105.75M75.5001 408.75V378.5M75.5001 408.75H105.75M75.5001 378.5V348.25M75.5001 378.5H105.75M75.5001 348.25V318M75.5001 348.25H105.75M75.5001 318V287.75M75.5001 318H105.75M75.5001 287.75V257.5M75.5001 287.75H105.75M75.5001 257.5V227.25M75.5001 257.5H105.75M75.5001 227.25V197M75.5001 227.25H105.75M75.5001 197V166.75M75.5001 197H105.75M75.5001 166.75V136.5M75.5001 166.75H105.75M75.5001 136.5V106.25M75.5001 136.5H105.75M75.5001 106.25V75.9999M75.5001 106.25H105.75M75.5001 75.9999V45.7499M75.5001 75.9999H105.75M75.5001 45.7499V15.4999M75.5001 45.7499H105.75M75.5001 15.4999V-14.7501M75.5001 15.4999H105.75M75.5001 -14.7501V-45.0001M75.5001 -14.7501H105.75M75.5001 -45.0001H105.75M105.75 560V529.75M105.75 560H136M105.75 529.75V499.5M105.75 529.75H136M105.75 499.5V469.25M105.75 499.5H136M105.75 469.25V439M105.75 469.25H136M105.75 439V408.75M105.75 439H136M105.75 408.75V378.5M105.75 408.75H136M105.75 378.5V348.25M105.75 378.5H136M105.75 348.25V318M105.75 348.25H136M105.75 318V287.75M105.75 318H136M105.75 287.75V257.5M105.75 287.75H136M105.75 257.5V227.25M105.75 257.5H136M105.75 227.25V197M105.75 227.25H136M105.75 197V166.75M105.75 197H136M105.75 166.75V136.5M105.75 166.75H136M105.75 136.5V106.25M105.75 136.5H136M105.75 106.25V75.9999M105.75 106.25H136M105.75 75.9999V45.7499M105.75 75.9999H136M105.75 45.7499V15.4999M105.75 45.7499H136M105.75 15.4999V-14.7501M105.75 15.4999H136M105.75 -14.7501V-45.0001M105.75 -14.7501H136M105.75 -45.0001H136M136 560V529.75M136 560H166.25M136 529.75V499.5M136 529.75H166.25M136 499.5V469.25M136 499.5H166.25M136 469.25V439M136 469.25H166.25M136 439V408.75M136 439H166.25M136 408.75V378.5M136 408.75H166.25M136 378.5V348.25M136 378.5H166.25M136 348.25V318M136 348.25H166.25M136 318V287.75M136 318H166.25M136 287.75V257.5M136 287.75H166.25M136 257.5V227.25M136 257.5H166.25M136 227.25V197M136 227.25H166.25M136 197V166.75M136 197H166.25M136 166.75V136.5M136 166.75H166.25M136 136.5V106.25M136 136.5H166.25M136 106.25V75.9999M136 106.25H166.25M136 75.9999V45.7499M136 75.9999H166.25M136 45.7499V15.4999M136 45.7499H166.25M136 15.4999V-14.7501M136 15.4999H166.25M136 -14.7501V-45.0001M136 -14.7501H166.25M136 -45.0001H166.25M166.25 560V529.75M166.25 560H196.5M166.25 529.75V499.5M166.25 529.75H196.5M166.25 499.5V469.25M166.25 499.5H196.5M166.25 469.25V439M166.25 469.25H196.5M166.25 439V408.75M166.25 439H196.5M166.25 408.75V378.5M166.25 408.75H196.5M166.25 378.5V348.25M166.25 378.5H196.5M166.25 348.25V318M166.25 348.25H196.5M166.25 318V287.75M166.25 318H196.5M166.25 287.75V257.5M166.25 287.75H196.5M166.25 257.5V227.25M166.25 257.5H196.5M166.25 227.25V197M166.25 227.25H196.5M166.25 197V166.75M166.25 197H196.5M166.25 166.75V136.5M166.25 166.75H196.5M166.25 136.5V106.25M166.25 136.5H196.5M166.25 106.25V75.9999M166.25 106.25H196.5M166.25 75.9999V45.7499M166.25 75.9999H196.5M166.25 45.7499V15.4999M166.25 45.7499H196.5M166.25 15.4999V-14.7501M166.25 15.4999H196.5M166.25 -14.7501V-45.0001M166.25 -14.7501H196.5M166.25 -45.0001H196.5M196.5 560V529.75M196.5 560H226.75M196.5 529.75V499.5M196.5 529.75H226.75M196.5 499.5V469.25M196.5 499.5H226.75M196.5 469.25V439M196.5 469.25H226.75M196.5 439V408.75M196.5 439H226.75M196.5 408.75V378.5M196.5 408.75H226.75M196.5 378.5V348.25M196.5 378.5H226.75M196.5 348.25V318M196.5 348.25H226.75M196.5 318V287.75M196.5 318H226.75M196.5 287.75V257.5M196.5 287.75H226.75M196.5 257.5V227.25M196.5 257.5H226.75M196.5 227.25V197M196.5 227.25H226.75M196.5 197V166.75M196.5 197H226.75M196.5 166.75V136.5M196.5 166.75H226.75M196.5 136.5V106.25M196.5 136.5H226.75M196.5 106.25V75.9999M196.5 106.25H226.75M196.5 75.9999V45.7499M196.5 75.9999H226.75M196.5 45.7499V15.4999M196.5 45.7499H226.75M196.5 15.4999V-14.7501M196.5 15.4999H226.75M196.5 -14.7501V-45.0001M196.5 -14.7501H226.75M196.5 -45.0001H226.75M226.75 560V529.75M226.75 560H257M226.75 529.75V499.5M226.75 529.75H257M226.75 499.5V469.25M226.75 499.5H257M226.75 469.25V439M226.75 469.25H257M226.75 439V408.75M226.75 439H257M226.75 408.75V378.5M226.75 408.75H257M226.75 378.5V348.25M226.75 378.5H257M226.75 348.25V318M226.75 348.25H257M226.75 318V287.75M226.75 318H257M226.75 287.75V257.5M226.75 287.75H257M226.75 257.5V227.25M226.75 257.5H257M226.75 227.25V197M226.75 227.25H257M226.75 197V166.75M226.75 197H257M226.75 166.75V136.5M226.75 166.75H257M226.75 136.5V106.25M226.75 136.5H257M226.75 106.25V75.9999M226.75 106.25H257M226.75 75.9999V45.7499M226.75 75.9999H257M226.75 45.7499V15.4999M226.75 45.7499H257M226.75 15.4999V-14.7501M226.75 15.4999H257M226.75 -14.7501V-45.0001M226.75 -14.7501H257M226.75 -45.0001H257M257 560V529.75M257 560H287.25M257 529.75V499.5M257 529.75H287.25M257 499.5V469.25M257 499.5H287.25M257 469.25V439M257 469.25H287.25M257 439V408.75M257 439H287.25M257 408.75V378.5M257 408.75H287.25M257 378.5V348.25M257 378.5H287.25M257 348.25V318M257 348.25H287.25M257 318V287.75M257 318H287.25M257 287.75V257.5M257 287.75H287.25M257 257.5V227.25M257 257.5H287.25M257 227.25V197M257 227.25H287.25M257 197V166.75M257 197H287.25M257 166.75V136.5M257 166.75H287.25M257 136.5V106.25M257 136.5H287.25M257 106.25V75.9999M257 106.25H287.25M257 75.9999V45.7499M257 75.9999H287.25M257 45.7499V15.4999M257 45.7499H287.25M257 15.4999V-14.7501M257 15.4999H287.25M257 -14.7501V-45.0001M257 -14.7501H287.25M257 -45.0001H287.25M287.25 560V529.75M287.25 560H317.5M287.25 529.75V499.5M287.25 529.75H317.5M287.25 499.5V469.25M287.25 499.5H317.5M287.25 469.25V439M287.25 469.25H317.5M287.25 439V408.75M287.25 439H317.5M287.25 408.75V378.5M287.25 408.75H317.5M287.25 378.5V348.25M287.25 378.5H317.5M287.25 348.25V318M287.25 348.25H317.5M287.25 318V287.75M287.25 318H317.5M287.25 287.75V257.5M287.25 287.75H317.5M287.25 257.5V227.25M287.25 257.5H317.5M287.25 227.25V197M287.25 227.25H317.5M287.25 197V166.75M287.25 197H317.5M287.25 166.75V136.5M287.25 166.75H317.5M287.25 136.5V106.25M287.25 136.5H317.5M287.25 106.25V75.9999M287.25 106.25H317.5M287.25 75.9999V45.7499M287.25 75.9999H317.5M287.25 45.7499V15.4999M287.25 45.7499H317.5M287.25 15.4999V-14.7501M287.25 15.4999H317.5M287.25 -14.7501V-45.0001M287.25 -14.7501H317.5M287.25 -45.0001H317.5M317.5 560V529.75M317.5 560H347.75M317.5 529.75V499.5M317.5 529.75H347.75M317.5 499.5V469.25M317.5 499.5H347.75M317.5 469.25V439M317.5 469.25H347.75M317.5 439V408.75M317.5 439H347.75M317.5 408.75V378.5M317.5 408.75H347.75M317.5 378.5V348.25M317.5 378.5H347.75M317.5 348.25V318M317.5 348.25H347.75M317.5 318V287.75M317.5 318H347.75M317.5 287.75V257.5M317.5 287.75H347.75M317.5 257.5V227.25M317.5 257.5H347.75M317.5 227.25V197M317.5 227.25H347.75M317.5 197V166.75M317.5 197H347.75M317.5 166.75V136.5M317.5 166.75H347.75M317.5 136.5V106.25M317.5 136.5H347.75M317.5 106.25V75.9999M317.5 106.25H347.75M317.5 75.9999V45.7499M317.5 75.9999H347.75M317.5 45.7499V15.4999M317.5 45.7499H347.75M317.5 15.4999V-14.7501M317.5 15.4999H347.75M317.5 -14.7501V-45.0001M317.5 -14.7501H347.75M317.5 -45.0001H347.75M347.75 560V529.75M347.75 560H378M347.75 529.75V499.5M347.75 529.75H378M347.75 499.5V469.25M347.75 499.5H378M347.75 469.25V439M347.75 469.25H378M347.75 439V408.75M347.75 439H378M347.75 408.75V378.5M347.75 408.75H378M347.75 378.5V348.25M347.75 378.5H378M347.75 348.25V318M347.75 348.25H378M347.75 318V287.75M347.75 318H378M347.75 287.75V257.5M347.75 287.75H378M347.75 257.5V227.25M347.75 257.5H378M347.75 227.25V197M347.75 227.25H378M347.75 197V166.75M347.75 197H378M347.75 166.75V136.5M347.75 166.75H378M347.75 136.5V106.25M347.75 136.5H378M347.75 106.25V75.9999M347.75 106.25H378M347.75 75.9999V45.7499M347.75 75.9999H378M347.75 45.7499V15.4999M347.75 45.7499H378M347.75 15.4999V-14.7501M347.75 15.4999H378M347.75 -14.7501V-45.0001M347.75 -14.7501H378M347.75 -45.0001H378M378 560V529.75M378 560H408.25M378 529.75V499.5M378 529.75H408.25M378 499.5V469.25M378 499.5H408.25M378 469.25V439M378 469.25H408.25M378 439V408.75M378 439H408.25M378 408.75V378.5M378 408.75H408.25M378 378.5V348.25M378 378.5H408.25M378 348.25V318M378 348.25H408.25M378 318V287.75M378 318H408.25M378 287.75V257.5M378 287.75H408.25M378 257.5V227.25M378 257.5H408.25M378 227.25V197M378 227.25H408.25M378 197V166.75M378 197H408.25M378 166.75V136.5M378 166.75H408.25M378 136.5V106.25M378 136.5H408.25M378 106.25V75.9999M378 106.25H408.25M378 75.9999V45.7499M378 75.9999H408.25M378 45.7499V15.4999M378 45.7499H408.25M378 15.4999V-14.7501M378 15.4999H408.25M378 -14.7501V-45.0001M378 -14.7501H408.25M378 -45.0001H408.25M408.25 560V529.75M408.25 560H438.5M408.25 529.75V499.5M408.25 529.75H438.5M408.25 499.5V469.25M408.25 499.5H438.5M408.25 469.25V439M408.25 469.25H438.5M408.25 439V408.75M408.25 439H438.5M408.25 408.75V378.5M408.25 408.75H438.5M408.25 378.5V348.25M408.25 378.5H438.5M408.25 348.25V318M408.25 348.25H438.5M408.25 318V287.75M408.25 318H438.5M408.25 287.75V257.5M408.25 287.75H438.5M408.25 257.5V227.25M408.25 257.5H438.5M408.25 227.25V197M408.25 227.25H438.5M408.25 197V166.75M408.25 197H438.5M408.25 166.75V136.5M408.25 166.75H438.5M408.25 136.5V106.25M408.25 136.5H438.5M408.25 106.25V75.9999M408.25 106.25H438.5M408.25 75.9999V45.7499M408.25 75.9999H438.5M408.25 45.7499V15.4999M408.25 45.7499H438.5M408.25 15.4999V-14.7501M408.25 15.4999H438.5M408.25 -14.7501V-45.0001M408.25 -14.7501H438.5M408.25 -45.0001H438.5M438.5 560V529.75M438.5 560H468.75M438.5 529.75V499.5M438.5 529.75H468.75M438.5 499.5V469.25M438.5 499.5H468.75M438.5 469.25V439M438.5 469.25H468.75M438.5 439V408.75M438.5 439H468.75M438.5 408.75V378.5M438.5 408.75H468.75M438.5 378.5V348.25M438.5 378.5H468.75M438.5 348.25V318M438.5 348.25H468.75M438.5 318V287.75M438.5 318H468.75M438.5 287.75V257.5M438.5 287.75H468.75M438.5 257.5V227.25M438.5 257.5H468.75M438.5 227.25V197M438.5 227.25H468.75M438.5 197V166.75M438.5 197H468.75M438.5 166.75V136.5M438.5 166.75H468.75M438.5 136.5V106.25M438.5 136.5H468.75M438.5 106.25V75.9999M438.5 106.25H468.75M438.5 75.9999V45.7499M438.5 75.9999H468.75M438.5 45.7499V15.4999M438.5 45.7499H468.75M438.5 15.4999V-14.7501M438.5 15.4999H468.75M438.5 -14.7501V-45.0001M438.5 -14.7501H468.75M438.5 -45.0001H468.75M468.75 560V529.75M468.75 560H499M468.75 529.75V499.5M468.75 529.75H499M468.75 499.5V469.25M468.75 499.5H499M468.75 469.25V439M468.75 469.25H499M468.75 439V408.75M468.75 439H499M468.75 408.75V378.5M468.75 408.75H499M468.75 378.5V348.25M468.75 378.5H499M468.75 348.25V318M468.75 348.25H499M468.75 318V287.75M468.75 318H499M468.75 287.75V257.5M468.75 287.75H499M468.75 257.5V227.25M468.75 257.5H499M468.75 227.25V197M468.75 227.25H499M468.75 197V166.75M468.75 197H499M468.75 166.75V136.5M468.75 166.75H499M468.75 136.5V106.25M468.75 136.5H499M468.75 106.25V75.9999M468.75 106.25H499M468.75 75.9999V45.7499M468.75 75.9999H499M468.75 45.7499V15.4999M468.75 45.7499H499M468.75 15.4999V-14.7501M468.75 15.4999H499M468.75 -14.7501V-45.0001M468.75 -14.7501H499M468.75 -45.0001H499M499 560V529.75M499 560H529.25M499 529.75V499.5M499 529.75H529.25M499 499.5V469.25M499 499.5H529.25M499 469.25V439M499 469.25H529.25M499 439V408.75M499 439H529.25M499 408.75V378.5M499 408.75H529.25M499 378.5V348.25M499 378.5H529.25M499 348.25V318M499 348.25H529.25M499 318V287.75M499 318H529.25M499 287.75V257.5M499 287.75H529.25M499 257.5V227.25M499 257.5H529.25M499 227.25V197M499 227.25H529.25M499 197V166.75M499 197H529.25M499 166.75V136.5M499 166.75H529.25M499 136.5V106.25M499 136.5H529.25M499 106.25V75.9999M499 106.25H529.25M499 75.9999V45.7499M499 75.9999H529.25M499 45.7499V15.4999M499 45.7499H529.25M499 15.4999V-14.7501M499 15.4999H529.25M499 -14.7501V-45.0001M499 -14.7501H529.25M499 -45.0001H529.25M529.25 560V529.75M529.25 560H559.5M529.25 529.75V499.5M529.25 529.75H559.5M529.25 499.5V469.25M529.25 499.5H559.5M529.25 469.25V439M529.25 469.25H559.5M529.25 439V408.75M529.25 439H559.5M529.25 408.75V378.5M529.25 408.75H559.5M529.25 378.5V348.25M529.25 378.5H559.5M529.25 348.25V318M529.25 348.25H559.5M529.25 318V287.75M529.25 318H559.5M529.25 287.75V257.5M529.25 287.75H559.5M529.25 257.5V227.25M529.25 257.5H559.5M529.25 227.25V197M529.25 227.25H559.5M529.25 197V166.75M529.25 197H559.5M529.25 166.75V136.5M529.25 166.75H559.5M529.25 136.5V106.25M529.25 136.5H559.5M529.25 106.25V75.9999M529.25 106.25H559.5M529.25 75.9999V45.7499M529.25 75.9999H559.5M529.25 45.7499V15.4999M529.25 45.7499H559.5M529.25 15.4999V-14.7501M529.25 15.4999H559.5M529.25 -14.7501V-45.0001M529.25 -14.7501H559.5M529.25 -45.0001H559.5M559.5 560V529.75M559.5 560H589.75M559.5 529.75V499.5M559.5 529.75H589.75M559.5 499.5V469.25M559.5 499.5H589.75M559.5 469.25V439M559.5 469.25H589.75M559.5 439V408.75M559.5 439H589.75M559.5 408.75V378.5M559.5 408.75H589.75M559.5 378.5V348.25M559.5 378.5H589.75M559.5 348.25V318M559.5 348.25H589.75M559.5 318V287.75M559.5 318H589.75M559.5 287.75V257.5M559.5 287.75H589.75M559.5 257.5V227.25M559.5 257.5H589.75M559.5 227.25V197M559.5 227.25H589.75M559.5 197V166.75M559.5 197H589.75M559.5 166.75V136.5M559.5 166.75H589.75M559.5 136.5V106.25M559.5 136.5H589.75M559.5 106.25V75.9999M559.5 106.25H589.75M559.5 75.9999V45.7499M559.5 75.9999H589.75M559.5 45.7499V15.4999M559.5 45.7499H589.75M559.5 15.4999V-14.7501M559.5 15.4999H589.75M559.5 -14.7501V-45.0001M559.5 -14.7501H589.75M559.5 -45.0001H589.75M589.75 560V529.75M589.75 560H620M589.75 529.75V499.5M589.75 529.75H620M589.75 499.5V469.25M589.75 499.5H620M589.75 469.25V439M589.75 469.25H620M589.75 439V408.75M589.75 439H620M589.75 408.75V378.5M589.75 408.75H620M589.75 378.5V348.25M589.75 378.5H620M589.75 348.25V318M589.75 348.25H620M589.75 318V287.75M589.75 318H620M589.75 287.75V257.5M589.75 287.75H620M589.75 257.5V227.25M589.75 257.5H620M589.75 227.25V197M589.75 227.25H620M589.75 197V166.75M589.75 197H620M589.75 166.75V136.5M589.75 166.75H620M589.75 136.5V106.25M589.75 136.5H620M589.75 106.25V75.9999M589.75 106.25H620M589.75 75.9999V45.7499M589.75 75.9999H620M589.75 45.7499V15.4999M589.75 45.7499H620M589.75 15.4999V-14.7501M589.75 15.4999H620M589.75 -14.7501V-45.0001M589.75 -14.7501H620M589.75 -45.0001H620M620 560V529.75M620 560H650.25M620 529.75V499.5M620 529.75H650.25M620 499.5V469.25M620 499.5H650.25M620 469.25V439M620 469.25H650.25M620 439V408.75M620 439H650.25M620 408.75V378.5M620 408.75H650.25M620 378.5V348.25M620 378.5H650.25M620 348.25V318M620 348.25H650.25M620 318V287.75M620 318H650.25M620 287.75V257.5M620 287.75H650.25M620 257.5V227.25M620 257.5H650.25M620 227.25V197M620 227.25H650.25M620 197V166.75M620 197H650.25M620 166.75V136.5M620 166.75H650.25M620 136.5V106.25M620 136.5H650.25M620 106.25V75.9999M620 106.25H650.25M620 75.9999V45.7499M620 75.9999H650.25M620 45.7499V15.4999M620 45.7499H650.25M620 15.4999V-14.7501M620 15.4999H650.25M620 -14.7501V-45.0001M620 -14.7501H650.25M620 -45.0001H650.25M650.25 560V529.75M650.25 560H680.5M650.25 529.75V499.5M650.25 529.75H680.5M650.25 499.5V469.25M650.25 499.5H680.5M650.25 469.25V439M650.25 469.25H680.5M650.25 439V408.75M650.25 439H680.5M650.25 408.75V378.5M650.25 408.75H680.5M650.25 378.5V348.25M650.25 378.5H680.5M650.25 348.25V318M650.25 348.25H680.5M650.25 318V287.75M650.25 318H680.5M650.25 287.75V257.5M650.25 287.75H680.5M650.25 257.5V227.25M650.25 257.5H680.5M650.25 227.25V197M650.25 227.25H680.5M650.25 197V166.75M650.25 197H680.5M650.25 166.75V136.5M650.25 166.75H680.5M650.25 136.5V106.25M650.25 136.5H680.5M650.25 106.25V75.9999M650.25 106.25H680.5M650.25 75.9999V45.7499M650.25 75.9999H680.5M650.25 45.7499V15.4999M650.25 45.7499H680.5M650.25 15.4999V-14.7501M650.25 15.4999H680.5M650.25 -14.7501V-45.0001M650.25 -14.7501H680.5M650.25 -45.0001H680.5M680.5 560V529.75M680.5 560H710.75M680.5 529.75V499.5M680.5 529.75H710.75M680.5 499.5V469.25M680.5 499.5H710.75M680.5 469.25V439M680.5 469.25H710.75M680.5 439V408.75M680.5 439H710.75M680.5 408.75V378.5M680.5 408.75H710.75M680.5 378.5V348.25M680.5 378.5H710.75M680.5 348.25V318M680.5 348.25H710.75M680.5 318V287.75M680.5 318H710.75M680.5 287.75V257.5M680.5 287.75H710.75M680.5 257.5V227.25M680.5 257.5H710.75M680.5 227.25V197M680.5 227.25H710.75M680.5 197V166.75M680.5 197H710.75M680.5 166.75V136.5M680.5 166.75H710.75M680.5 136.5V106.25M680.5 136.5H710.75M680.5 106.25V75.9999M680.5 106.25H710.75M680.5 75.9999V45.7499M680.5 75.9999H710.75M680.5 45.7499V15.4999M680.5 45.7499H710.75M680.5 15.4999V-14.7501M680.5 15.4999H710.75M680.5 -14.7501V-45.0001M680.5 -14.7501H710.75M680.5 -45.0001H710.75M710.75 560V529.75M710.75 560H741M710.75 529.75V499.5M710.75 529.75H741M710.75 499.5V469.25M710.75 499.5H741M710.75 469.25V439M710.75 469.25H741M710.75 439V408.75M710.75 439H741M710.75 408.75V378.5M710.75 408.75H741M710.75 378.5V348.25M710.75 378.5H741M710.75 348.25V318M710.75 348.25H741M710.75 318V287.75M710.75 318H741M710.75 287.75V257.5M710.75 287.75H741M710.75 257.5V227.25M710.75 257.5H741M710.75 227.25V197M710.75 227.25H741M710.75 197V166.75M710.75 197H741M710.75 166.75V136.5M710.75 166.75H741M710.75 136.5V106.25M710.75 136.5H741M710.75 106.25V75.9999M710.75 106.25H741M710.75 75.9999V45.7499M710.75 75.9999H741M710.75 45.7499V15.4999M710.75 45.7499H741M710.75 15.4999V-14.7501M710.75 15.4999H741M710.75 -14.7501V-45.0001M710.75 -14.7501H741M710.75 -45.0001H741M741 560V529.75M741 560H771.25M741 529.75V499.5M741 529.75H771.25M741 499.5V469.25M741 499.5H771.25M741 469.25V439M741 469.25H771.25M741 439V408.75M741 439H771.25M741 408.75V378.5M741 408.75H771.25M741 378.5V348.25M741 378.5H771.25M741 348.25V318M741 348.25H771.25M741 318V287.75M741 318H771.25M741 287.75V257.5M741 287.75H771.25M741 257.5V227.25M741 257.5H771.25M741 227.25V197M741 227.25H771.25M741 197V166.75M741 197H771.25M741 166.75V136.5M741 166.75H771.25M741 136.5V106.25M741 136.5H771.25M741 106.25V75.9999M741 106.25H771.25M741 75.9999V45.7499M741 75.9999H771.25M741 45.7499V15.4999M741 45.7499H771.25M741 15.4999V-14.7501M741 15.4999H771.25M741 -14.7501V-45.0001M741 -14.7501H771.25M741 -45.0001H771.25M771.25 560V529.75M771.25 560H801.5M771.25 529.75V499.5M771.25 529.75H801.5M771.25 499.5V469.25M771.25 499.5H801.5M771.25 469.25V439M771.25 469.25H801.5M771.25 439V408.75M771.25 439H801.5M771.25 408.75V378.5M771.25 408.75H801.5M771.25 378.5V348.25M771.25 378.5H801.5M771.25 348.25V318M771.25 348.25H801.5M771.25 318V287.75M771.25 318H801.5M771.25 287.75V257.5M771.25 287.75H801.5M771.25 257.5V227.25M771.25 257.5H801.5M771.25 227.25V197M771.25 227.25H801.5M771.25 197V166.75M771.25 197H801.5M771.25 166.75V136.5M771.25 166.75H801.5M771.25 136.5V106.25M771.25 136.5H801.5M771.25 106.25V75.9999M771.25 106.25H801.5M771.25 75.9999V45.7499M771.25 75.9999H801.5M771.25 45.7499V15.4999M771.25 45.7499H801.5M771.25 15.4999V-14.7501M771.25 15.4999H801.5M771.25 -14.7501V-45.0001M771.25 -14.7501H801.5M771.25 -45.0001H801.5M801.5 560V529.75M801.5 560H831.75M801.5 529.75V499.5M801.5 529.75H831.75M801.5 499.5V469.25M801.5 499.5H831.75M801.5 469.25V439M801.5 469.25H831.75M801.5 439V408.75M801.5 439H831.75M801.5 408.75V378.5M801.5 408.75H831.75M801.5 378.5V348.25M801.5 378.5H831.75M801.5 348.25V318M801.5 348.25H831.75M801.5 318V287.75M801.5 318H831.75M801.5 287.75V257.5M801.5 287.75H831.75M801.5 257.5V227.25M801.5 257.5H831.75M801.5 227.25V197M801.5 227.25H831.75M801.5 197V166.75M801.5 197H831.75M801.5 166.75V136.5M801.5 166.75H831.75M801.5 136.5V106.25M801.5 136.5H831.75M801.5 106.25V75.9999M801.5 106.25H831.75M801.5 75.9999V45.7499M801.5 75.9999H831.75M801.5 45.7499V15.4999M801.5 45.7499H831.75M801.5 15.4999V-14.7501M801.5 15.4999H831.75M801.5 -14.7501V-45.0001M801.5 -14.7501H831.75M801.5 -45.0001H831.75M831.75 560V529.75M831.75 560H862M831.75 529.75V499.5M831.75 529.75H862M831.75 499.5V469.25M831.75 499.5H862M831.75 469.25V439M831.75 469.25H862M831.75 439V408.75M831.75 439H862M831.75 408.75V378.5M831.75 408.75H862M831.75 378.5V348.25M831.75 378.5H862M831.75 348.25V318M831.75 348.25H862M831.75 318V287.75M831.75 318H862M831.75 287.75V257.5M831.75 287.75H862M831.75 257.5V227.25M831.75 257.5H862M831.75 227.25V197M831.75 227.25H862M831.75 197V166.75M831.75 197H862M831.75 166.75V136.5M831.75 166.75H862M831.75 136.5V106.25M831.75 136.5H862M831.75 106.25V75.9999M831.75 106.25H862M831.75 75.9999V45.7499M831.75 75.9999H862M831.75 45.7499V15.4999M831.75 45.7499H862M831.75 15.4999V-14.7501M831.75 15.4999H862M831.75 -14.7501V-45.0001M831.75 -14.7501H862M831.75 -45.0001H862M862 560V529.75M862 560H892.25M862 529.75V499.5M862 529.75H892.25M862 499.5V469.25M862 499.5H892.25M862 469.25V439M862 469.25H892.25M862 439V408.75M862 439H892.25M862 408.75V378.5M862 408.75H892.25M862 378.5V348.25M862 378.5H892.25M862 348.25V318M862 348.25H892.25M862 318V287.75M862 318H892.25M862 287.75V257.5M862 287.75H892.25M862 257.5V227.25M862 257.5H892.25M862 227.25V197M862 227.25H892.25M862 197V166.75M862 197H892.25M862 166.75V136.5M862 166.75H892.25M862 136.5V106.25M862 136.5H892.25M862 106.25V75.9999M862 106.25H892.25M862 75.9999V45.7499M862 75.9999H892.25M862 45.7499V15.4999M862 45.7499H892.25M862 15.4999V-14.7501M862 15.4999H892.25M862 -14.7501V-45.0001M862 -14.7501H892.25M862 -45.0001H892.25M892.25 560V529.75M892.25 560H922.5M892.25 529.75V499.5M892.25 529.75H922.5M892.25 499.5V469.25M892.25 499.5H922.5M892.25 469.25V439M892.25 469.25H922.5M892.25 439V408.75M892.25 439H922.5M892.25 408.75V378.5M892.25 408.75H922.5M892.25 378.5V348.25M892.25 378.5H922.5M892.25 348.25V318M892.25 348.25H922.5M892.25 318V287.75M892.25 318H922.5M892.25 287.75V257.5M892.25 287.75H922.5M892.25 257.5V227.25M892.25 257.5H922.5M892.25 227.25V197M892.25 227.25H922.5M892.25 197V166.75M892.25 197H922.5M892.25 166.75V136.5M892.25 166.75H922.5M892.25 136.5V106.25M892.25 136.5H922.5M892.25 106.25V75.9999M892.25 106.25H922.5M892.25 75.9999V45.7499M892.25 75.9999H922.5M892.25 45.7499V15.4999M892.25 45.7499H922.5M892.25 15.4999V-14.7501M892.25 15.4999H922.5M892.25 -14.7501V-45.0001M892.25 -14.7501H922.5M892.25 -45.0001H922.5M922.5 560V529.75M922.5 560H952.75M922.5 529.75V499.5M922.5 529.75H952.75M922.5 499.5V469.25M922.5 499.5H952.75M922.5 469.25V439M922.5 469.25H952.75M922.5 439V408.75M922.5 439H952.75M922.5 408.75V378.5M922.5 408.75H952.75M922.5 378.5V348.25M922.5 378.5H952.75M922.5 348.25V318M922.5 348.25H952.75M922.5 318V287.75M922.5 318H952.75M922.5 287.75V257.5M922.5 287.75H952.75M922.5 257.5V227.25M922.5 257.5H952.75M922.5 227.25V197M922.5 227.25H952.75M922.5 197V166.75M922.5 197H952.75M922.5 166.75V136.5M922.5 166.75H952.75M922.5 136.5V106.25M922.5 136.5H952.75M922.5 106.25V75.9999M922.5 106.25H952.75M922.5 75.9999V45.7499M922.5 75.9999H952.75M922.5 45.7499V15.4999M922.5 45.7499H952.75M922.5 15.4999V-14.7501M922.5 15.4999H952.75M922.5 -14.7501V-45.0001M922.5 -14.7501H952.75M922.5 -45.0001H952.75M952.75 560V529.75M952.75 560H983M952.75 529.75V499.5M952.75 529.75H983M952.75 499.5V469.25M952.75 499.5H983M952.75 469.25V439M952.75 469.25H983M952.75 439V408.75M952.75 439H983M952.75 408.75V378.5M952.75 408.75H983M952.75 378.5V348.25M952.75 378.5H983M952.75 348.25V318M952.75 348.25H983M952.75 318V287.75M952.75 318H983M952.75 287.75V257.5M952.75 287.75H983M952.75 257.5V227.25M952.75 257.5H983M952.75 227.25V197M952.75 227.25H983M952.75 197V166.75M952.75 197H983M952.75 166.75V136.5M952.75 166.75H983M952.75 136.5V106.25M952.75 136.5H983M952.75 106.25V75.9999M952.75 106.25H983M952.75 75.9999V45.7499M952.75 75.9999H983M952.75 45.7499V15.4999M952.75 45.7499H983M952.75 15.4999V-14.7501M952.75 15.4999H983M952.75 -14.7501V-45.0001M952.75 -14.7501H983M952.75 -45.0001H983M983 560V529.75M983 560H1013.25M983 529.75V499.5M983 529.75H1013.25M983 499.5V469.25M983 499.5H1013.25M983 469.25V439M983 469.25H1013.25M983 439V408.75M983 439H1013.25M983 408.75V378.5M983 408.75H1013.25M983 378.5V348.25M983 378.5H1013.25M983 348.25V318M983 348.25H1013.25M983 318V287.75M983 318H1013.25M983 287.75V257.5M983 287.75H1013.25M983 257.5V227.25M983 257.5H1013.25M983 227.25V197M983 227.25H1013.25M983 197V166.75M983 197H1013.25M983 166.75V136.5M983 166.75H1013.25M983 136.5V106.25M983 136.5H1013.25M983 106.25V75.9999M983 106.25H1013.25M983 75.9999V45.7499M983 75.9999H1013.25M983 45.7499V15.4999M983 45.7499H1013.25M983 15.4999V-14.7501M983 15.4999H1013.25M983 -14.7501V-45.0001M983 -14.7501H1013.25M983 -45.0001H1013.25M1013.25 560V529.75M1013.25 560H1043.5M1013.25 529.75V499.5M1013.25 529.75H1043.5M1013.25 499.5V469.25M1013.25 499.5H1043.5M1013.25 469.25V439M1013.25 469.25H1043.5M1013.25 439V408.75M1013.25 439H1043.5M1013.25 408.75V378.5M1013.25 408.75H1043.5M1013.25 378.5V348.25M1013.25 378.5H1043.5M1013.25 348.25V318M1013.25 348.25H1043.5M1013.25 318V287.75M1013.25 318H1043.5M1013.25 287.75V257.5M1013.25 287.75H1043.5M1013.25 257.5V227.25M1013.25 257.5H1043.5M1013.25 227.25V197M1013.25 227.25H1043.5M1013.25 197V166.75M1013.25 197H1043.5M1013.25 166.75V136.5M1013.25 166.75H1043.5M1013.25 136.5V106.25M1013.25 136.5H1043.5M1013.25 106.25V75.9999M1013.25 106.25H1043.5M1013.25 75.9999V45.7499M1013.25 75.9999H1043.5M1013.25 45.7499V15.4999M1013.25 45.7499H1043.5M1013.25 15.4999V-14.7501M1013.25 15.4999H1043.5M1013.25 -14.7501V-45.0001M1013.25 -14.7501H1043.5M1013.25 -45.0001H1043.5M1043.5 560V529.75M1043.5 560H1073.75M1043.5 529.75V499.5M1043.5 529.75H1073.75M1043.5 499.5V469.25M1043.5 499.5H1073.75M1043.5 469.25V439M1043.5 469.25H1073.75M1043.5 439V408.75M1043.5 439H1073.75M1043.5 408.75V378.5M1043.5 408.75H1073.75M1043.5 378.5V348.25M1043.5 378.5H1073.75M1043.5 348.25V318M1043.5 348.25H1073.75M1043.5 318V287.75M1043.5 318H1073.75M1043.5 287.75V257.5M1043.5 287.75H1073.75M1043.5 257.5V227.25M1043.5 257.5H1073.75M1043.5 227.25V197M1043.5 227.25H1073.75M1043.5 197V166.75M1043.5 197H1073.75M1043.5 166.75V136.5M1043.5 166.75H1073.75M1043.5 136.5V106.25M1043.5 136.5H1073.75M1043.5 106.25V75.9999M1043.5 106.25H1073.75M1043.5 75.9999V45.7499M1043.5 75.9999H1073.75M1043.5 45.7499V15.4999M1043.5 45.7499H1073.75M1043.5 15.4999V-14.7501M1043.5 15.4999H1073.75M1043.5 -14.7501V-45.0001M1043.5 -14.7501H1073.75M1043.5 -45.0001H1073.75M1073.75 560V529.75M1073.75 560H1104M1073.75 529.75V499.5M1073.75 529.75H1104M1073.75 499.5V469.25M1073.75 499.5H1104M1073.75 469.25V439M1073.75 469.25H1104M1073.75 439V408.75M1073.75 439H1104M1073.75 408.75V378.5M1073.75 408.75H1104M1073.75 378.5V348.25M1073.75 378.5H1104M1073.75 348.25V318M1073.75 348.25H1104M1073.75 318V287.75M1073.75 318H1104M1073.75 287.75V257.5M1073.75 287.75H1104M1073.75 257.5V227.25M1073.75 257.5H1104M1073.75 227.25V197M1073.75 227.25H1104M1073.75 197V166.75M1073.75 197H1104M1073.75 166.75V136.5M1073.75 166.75H1104M1073.75 136.5V106.25M1073.75 136.5H1104M1073.75 106.25V75.9999M1073.75 106.25H1104M1073.75 75.9999V45.7499M1073.75 75.9999H1104M1073.75 45.7499V15.4999M1073.75 45.7499H1104M1073.75 15.4999V-14.7501M1073.75 15.4999H1104M1073.75 -14.7501V-45.0001M1073.75 -14.7501H1104M1073.75 -45.0001H1104M1104 560V529.75M1104 560H1134.25M1104 529.75V499.5M1104 529.75H1134.25M1104 499.5V469.25M1104 499.5H1134.25M1104 469.25V439M1104 469.25H1134.25M1104 439V408.75M1104 439H1134.25M1104 408.75V378.5M1104 408.75H1134.25M1104 378.5V348.25M1104 378.5H1134.25M1104 348.25V318M1104 348.25H1134.25M1104 318V287.75M1104 318H1134.25M1104 287.75V257.5M1104 287.75H1134.25M1104 257.5V227.25M1104 257.5H1134.25M1104 227.25V197M1104 227.25H1134.25M1104 197V166.75M1104 197H1134.25M1104 166.75V136.5M1104 166.75H1134.25M1104 136.5V106.25M1104 136.5H1134.25M1104 106.25V75.9999M1104 106.25H1134.25M1104 75.9999V45.7499M1104 75.9999H1134.25M1104 45.7499V15.4999M1104 45.7499H1134.25M1104 15.4999V-14.7501M1104 15.4999H1134.25M1104 -14.7501V-45.0001M1104 -14.7501H1134.25M1104 -45.0001H1134.25M1134.25 560V529.75M1134.25 560H1164.5M1134.25 529.75V499.5M1134.25 529.75H1164.5M1134.25 499.5V469.25M1134.25 499.5H1164.5M1134.25 469.25V439M1134.25 469.25H1164.5M1134.25 439V408.75M1134.25 439H1164.5M1134.25 408.75V378.5M1134.25 408.75H1164.5M1134.25 378.5V348.25M1134.25 378.5H1164.5M1134.25 348.25V318M1134.25 348.25H1164.5M1134.25 318V287.75M1134.25 318H1164.5M1134.25 287.75V257.5M1134.25 287.75H1164.5M1134.25 257.5V227.25M1134.25 257.5H1164.5M1134.25 227.25V197M1134.25 227.25H1164.5M1134.25 197V166.75M1134.25 197H1164.5M1134.25 166.75V136.5M1134.25 166.75H1164.5M1134.25 136.5V106.25M1134.25 136.5H1164.5M1134.25 106.25V75.9999M1134.25 106.25H1164.5M1134.25 75.9999V45.7499M1134.25 75.9999H1164.5M1134.25 45.7499V15.4999M1134.25 45.7499H1164.5M1134.25 15.4999V-14.7501M1134.25 15.4999H1164.5M1134.25 -14.7501V-45.0001M1134.25 -14.7501H1164.5M1134.25 -45.0001H1164.5M1164.5 560V529.75M1164.5 560H1194.75M1164.5 529.75V499.5M1164.5 529.75H1194.75M1164.5 499.5V469.25M1164.5 499.5H1194.75M1164.5 469.25V439M1164.5 469.25H1194.75M1164.5 439V408.75M1164.5 439H1194.75M1164.5 408.75V378.5M1164.5 408.75H1194.75M1164.5 378.5V348.25M1164.5 378.5H1194.75M1164.5 348.25V318M1164.5 348.25H1194.75M1164.5 318V287.75M1164.5 318H1194.75M1164.5 287.75V257.5M1164.5 287.75H1194.75M1164.5 257.5V227.25M1164.5 257.5H1194.75M1164.5 227.25V197M1164.5 227.25H1194.75M1164.5 197V166.75M1164.5 197H1194.75M1164.5 166.75V136.5M1164.5 166.75H1194.75M1164.5 136.5V106.25M1164.5 136.5H1194.75M1164.5 106.25V75.9999M1164.5 106.25H1194.75M1164.5 75.9999V45.7499M1164.5 75.9999H1194.75M1164.5 45.7499V15.4999M1164.5 45.7499H1194.75M1164.5 15.4999V-14.7501M1164.5 15.4999H1194.75M1164.5 -14.7501V-45.0001M1164.5 -14.7501H1194.75M1164.5 -45.0001H1194.75M1194.75 560V529.75M1194.75 560H1225V529.75M1194.75 529.75V499.5M1194.75 529.75H1225M1194.75 499.5V469.25M1194.75 499.5H1225M1194.75 469.25V439M1194.75 469.25H1225M1194.75 439V408.75M1194.75 439H1225M1194.75 408.75V378.5M1194.75 408.75H1225M1194.75 378.5V348.25M1194.75 378.5H1225M1194.75 348.25V318M1194.75 348.25H1225M1194.75 318V287.75M1194.75 318H1225M1194.75 287.75V257.5M1194.75 287.75H1225M1194.75 257.5V227.25M1194.75 257.5H1225M1194.75 227.25V197M1194.75 227.25H1225M1194.75 197V166.75M1194.75 197H1225M1194.75 166.75V136.5M1194.75 166.75H1225M1194.75 136.5V106.25M1194.75 136.5H1225M1194.75 106.25V75.9999M1194.75 106.25H1225M1194.75 75.9999V45.7499M1194.75 75.9999H1225M1194.75 45.7499V15.4999M1194.75 45.7499H1225M1194.75 15.4999V-14.7501M1194.75 15.4999H1225M1194.75 -14.7501V-45.0001M1194.75 -14.7501H1225M1194.75 -45.0001H1225V-14.7501M1225 529.75V499.5M1225 499.5V469.25M1225 469.25V439M1225 439V408.75M1225 408.75V378.5M1225 378.5V348.25M1225 348.25V318M1225 318V287.75M1225 287.75V257.5M1225 257.5V227.25M1225 227.25V197M1225 197V166.75M1225 166.75V136.5M1225 136.5V106.25M1225 106.25V75.9999M1225 75.9999V45.7499M1225 45.7499V15.4999M1225 15.4999V-14.7501" stroke="url(#paint0_linear_2008_256)" stroke-opacity="0.85" stroke-width="0.832174"></path></g><rect x="-64" y="-62" width="145" height="169" fill="url(#paint1_radial_2008_256)"></rect><path opacity="0.2" d="M-8.43203 75.0191C-5.10864 62.8649 3.88299 35.4207 13.2625 22.878C24.9868 7.19952 37.608 8.02229 43.329 23.2581C51.7284 45.6271 29.1451 72.6337 24.6798 41.9073C20.2145 11.181 53.8426 -5.04899 66.6467 -4.80453" stroke="white" stroke-width="6"></path><rect x="1040" y="10" width="145" height="169" fill="url(#paint2_radial_2008_256)" fill-opacity="0.67"></rect><path opacity="0.2" d="M1011.2 106.846C1027.49 104.398 1064.5 96.9393 1082.22 86.6898C1104.37 73.878 1105.24 57.3689 1086.34 47.604C1058.59 33.2675 1020.07 58.4357 1059.27 68.9485C1098.47 79.4614 1124.7 38.3024 1126.34 21.6446" stroke="white" stroke-width="7"></path></g><defs><linearGradient id="paint0_linear_2008_256" x1="559.5" y1="560" x2="559.5" y2="-45.0001" gradientUnits="userSpaceOnUse"><stop stop-color="white" stop-opacity="0"></stop><stop offset="1" stop-color="white"></stop></linearGradient><radialGradient id="paint1_radial_2008_256" cx="0" cy="0" r="1" gradientUnits="userSpaceOnUse" gradientTransform="translate(8.5 22.5) rotate(90) scale(84.5 72.5)"><stop stop-color="#284EBD"></stop><stop offset="1" stop-color="#26449F" stop-opacity="0"></stop></radialGradient><radialGradient id="paint2_radial_2008_256" cx="0" cy="0" r="1" gradientUnits="userSpaceOnUse" gradientTransform="translate(1112.5 94.5) rotate(90) scale(84.5 72.5)"><stop stop-color="#223F96"></stop><stop offset="1" stop-color="#26449F" stop-opacity="0"></stop></radialGradient><clipPath id="clip0_2008_256"><rect width="1120" height="95" fill="white"></rect></clipPath></defs></svg>